<svg width="842" height="1197" viewBox="0 0 842 1197" fill="none" xmlns="http://www.w3.org/2000/svg">
<path fill-rule="evenodd" clip-rule="evenodd" d="M659.933 680.977C651.249 677.881 642.879 674.305 635.253 669.045C613.27 652.682 598.936 628.057 585.392 604.726C566.314 570.793 552.723 534.635 543.328 496.915C539.291 480.709 537.92 461.919 528.748 447.551C507.956 417.466 446.987 421.364 414.612 426.645C392.932 430.481 388.451 454.743 383.527 472.696C379.427 487.613 376.743 502.699 374.49 517.987C369.13 521.511 363.079 524.373 357.311 526.866C294.452 546.141 283.404 581.875 259.395 637.073C218.844 717.302 108.809 748.715 92.1878 843.664C81.4788 906.349 111.932 965.322 143.329 1017.43C172.569 1074.36 213.39 1101.67 278.399 1088.23C339.374 1074.55 397.974 1051.67 457.876 1033.99C486.889 1026.85 515.856 1008.3 546.375 1014.77C609.26 1028.89 673.871 1035.53 738.317 1033.7C828.801 1037.36 828.787 950.513 819.5 883.26C812.995 778.599 760.205 711.395 659.933 680.977V680.977Z" fill="#D08B5B"/>
<path fill-rule="evenodd" clip-rule="evenodd" d="M665.983 832.422C673.544 837.422 679.903 845.003 685.008 852.981C663.696 850.764 642.421 848.208 621.193 845.298C623.972 843.522 626.777 841.785 629.646 840.145C640.113 834.247 654.295 824.694 665.983 832.422ZM311.898 895.42C307.993 893.891 306.482 887.937 304.96 884.524C300.188 873.821 295.833 862.936 291.302 852.129C308.506 847.225 325.236 841.784 343.058 839.17C362.221 836.362 381.667 835.682 401.007 836.313C440.181 837.591 478.991 843.993 517.505 850.858C555.974 857.715 594.441 864.303 633.179 869.473C671.132 874.538 709.205 878.245 747.349 881.499C754.76 882.132 767.117 884.797 773.077 878.965C777.796 874.346 777.949 865.827 772.044 862.072C768.366 859.731 763.037 859.697 758.835 859.157C753.543 858.476 748.23 858.023 742.906 857.67C740.737 857.527 738.568 857.395 736.398 857.263C753.815 850.696 772.006 847.115 790.888 848.113C791.956 854.6 796.767 861.274 799.4 866.624C803.998 875.964 807.582 885.417 809.935 895.573C814.853 916.801 815.067 938.833 813.678 960.484C812.402 978.536 809.661 998.504 795.501 1011.29C784.78 1020.97 769.654 1024.55 755.621 1025.68C739.311 1026.99 722.749 1025.59 706.576 1023.4C683.892 1020.34 661.102 1016.28 638.864 1010.85C595.793 1000.32 554.509 983.566 516.42 960.854C497.845 949.779 480.121 937.319 461.291 926.665C442.104 915.807 421.688 907.384 400.25 902.154C376.259 896.301 351.179 893.803 326.521 895.247C322.242 895.497 316.06 897.049 311.898 895.42ZM284.096 884.552C286.617 892.733 288.546 902.074 293.927 908.948C299.257 915.76 307.298 918.164 315.628 918.77C325.672 919.499 335.834 919.032 345.9 919.406C366.545 920.173 386.907 923.526 406.643 929.677C425.035 935.41 442.108 944.352 458.554 954.272C473.762 963.446 488.524 973.295 503.737 982.441C499.688 984.297 495.685 986.305 491.66 988.053C483.218 991.719 474.724 995.256 466.192 998.705C449.367 1005.5 432.471 1012.14 415.402 1018.3C380.984 1030.73 346 1041.59 310.595 1050.84C293.709 1055.25 276.583 1060.41 259.04 1061.14C243.484 1061.79 229.075 1057.39 216.529 1048.14C190.507 1028.96 169.804 1001.27 153.068 973.958C143.125 957.731 134.448 940.681 127.271 923.052C123.641 914.137 120.349 905.085 117.386 895.927C115.996 891.627 114.678 887.303 113.43 882.959C112.881 881.049 112.355 879.133 111.834 877.215C138.443 869.095 165.368 861.765 192.925 857.696C207.638 855.523 222.547 854.423 237.421 854.583C244.804 854.662 252.183 855.061 259.527 855.823C263.48 856.233 267.417 856.761 271.337 857.415C272.957 857.684 274.622 858.082 276.292 858.375C278.843 867.116 281.415 875.85 284.096 884.552ZM834.138 849.798C835.572 846.897 836.177 844.043 836.691 840.885C837.083 838.476 838.123 835.085 837.212 831.957C836.192 828.454 833.413 825.321 831.418 822.333C829.215 819.031 827.014 815.727 824.816 812.421C820.419 805.81 816.032 799.193 811.652 792.571C793.765 765.53 776 738.411 758.207 711.309C742.417 687.258 726.893 662.991 710.622 639.263C696.709 618.973 681.544 599.018 662.5 583.238C638.421 563.286 609.749 553.887 579.8 546.553C576.529 543.158 572.16 541.304 567.49 541.68C560.892 534.197 555.648 528.97 553.271 519.454C552.132 514.896 552.489 502.089 548.05 499.392C542.777 496.188 540.023 500.428 538.569 505.208C533.704 521.198 539.288 542.696 552.138 558.713C546.724 577.424 539.546 604.016 526.741 619.006C513.029 635.057 494.066 640.053 473.606 640.382C434.588 641.01 395.611 626.509 365.85 601.377C356.804 593.739 348.403 585.208 340.802 576.135C335.101 569.328 328.357 558.823 323.897 550.883C323.897 547.788 320.243 544.553 357.437 542.053C394.63 539.553 397.451 488.626 398.278 481.695C398.95 476.067 401.808 467.331 397.842 462.742C396.159 460.793 392.705 460.479 390.571 461.803C386.547 464.302 385.225 470.692 383.96 475.031C382.188 481.11 376.395 518.837 365.418 523.205C360.279 525.25 354.385 525.288 348.949 525.666C342.236 526.135 335.509 526.478 328.823 527.259C326.357 527.547 323.667 528.345 321.234 528.368C319.651 528.383 318.018 527.614 316.488 527.074C311.324 525.249 306.164 526.618 300.844 527.333C253.808 533.654 205.377 548.081 165.257 574.04C129.895 596.92 104.982 629.825 88.5427 668.297C71.7697 707.559 62.1557 750.016 54.0987 791.812C51.3997 805.816 49.0427 819.885 47.0177 834.002C45.0607 847.643 42.6127 861.589 42.0267 875.368C41.7947 880.82 43.0977 885.885 45.1027 890.865C47.3607 896.47 52.6977 898.68 57.8167 901.297C69.0537 907.045 80.9077 911.503 93.1207 914.66C100.582 928.233 106.861 942.336 111.907 956.973C110.035 960.682 109.996 966.221 109.636 969.826C108.743 978.803 108.361 987.827 108.281 996.845C108.12 1014.92 109.207 1032.98 110.059 1051.02C110.923 1069.33 113.795 1141.55 114.263 1150.37C114.627 1157.22 114.137 1166.8 117.746 1172.88C123.292 1182.23 136.98 1181.92 143.32 1174.34C300.844 1208.2 596.944 1198 716.199 1180.96C731.715 1178.74 726.843 1181.2 730.789 1177.28C733.75 1174.34 736.27 1169.3 737.089 1165.25C738.183 1159.84 736.417 1154.95 733.321 1150.57C730.066 1145.97 729.473 1138.52 728.264 1133.05C725.405 1120.12 723.984 1063.33 722.648 1057.04C722.232 1055.07 721.829 1053 721.343 1050.93C743.218 1053 766.011 1053 786.822 1045.68C798.623 1041.53 809.629 1035.02 818.101 1025.71C828.359 1014.45 834.066 1000.26 837.001 985.457C840.788 966.366 841.592 946.591 840.848 927.184C839.814 904.248 836.01 880.989 826.568 859.93C829.675 857.045 832.279 853.564 834.138 849.798Z" fill="black"/>
<path fill-rule="evenodd" clip-rule="evenodd" d="M615.581 283.192C615.183 260.79 614.743 237.94 611.413 215.756C608.157 194.068 599.2 174.464 583.808 158.715C551.115 125.262 503.725 117.091 459.613 109.603L384.194 96.8001C361.185 92.8951 336.638 86.6531 313.391 92.1911C301.936 94.9201 292.208 101.26 283.317 108.761C274.747 115.991 265.533 123.755 259.726 133.482C253.909 143.223 251.908 154.61 250.017 165.627C247.884 178.048 246.227 190.566 245.05 203.114C242.691 228.254 242.369 253.583 244.08 278.775C244.909 290.994 246.228 303.178 247.912 315.308C248.747 321.323 249.691 327.323 250.757 333.302C251.071 335.065 251.31 337.017 251.632 338.989C249.253 345.755 247.901 352.762 248.01 359.739C248.331 380.291 265.678 393.23 283.166 400.177C293.306 404.205 303.907 406.942 313.87 411.442C324.351 416.175 331.485 423.848 338.651 432.601C352.318 449.295 367.741 464.299 385.352 476.817C422.69 503.358 469.982 515.911 515.286 506.383C526.156 504.097 537.122 500.547 546.893 495.198C557.209 489.551 564.966 481.368 571.48 471.693C583.575 453.732 592.249 433.507 598.811 412.926C605.504 391.932 610.255 370.9 612.846 349.009C615.428 327.189 615.972 305.147 615.581 283.192V283.192Z" fill="#D08B5B"/>
<path fill-rule="evenodd" clip-rule="evenodd" d="M374.911 18.7638C406.121 14.4708 449.198 28.4238 464.741 56.5578C538.947 39.0638 632.54 38.4908 693.701 96.7278C757.52 165.81 677.36 256.895 624.207 277.431C628.077 296.238 622.043 416.723 579.348 470.466C545.464 516.002 466.557 537.017 430.044 482.628L429.759 482.179C425.848 475.898 429.217 476.099 433.232 480.772C468.986 512.214 517.599 512.751 555.06 479.569C625.268 418.919 618.029 270.209 584.621 184.178C489.491 173.73 387.637 202.563 321.932 274.172L326.375 300.92C327.132 305.477 327.992 310.03 328.648 314.603C329.068 317.533 329.115 320.447 327.085 322.819C320.382 330.649 309.085 318.883 299.79 314.203C297.046 313.817 294.297 313.668 291.601 313.858C246.943 319.61 255.742 406.24 304.824 391.055C308.948 388.486 312.491 389.27 314.091 392.998C325.79 403.714 333.504 422.826 352.941 441.234C359.799 448.139 366.04 453.916 373.754 459.455C378.285 464.037 391.957 468.709 387.623 476.55C379.427 494.392 331.096 438.347 322.551 422.848C295.778 433.42 266.108 429.829 238.363 427.245C91.9933 419.635 111.533 265.345 231.509 167.934C254.093 151.308 279.01 137.745 304.911 127.308C308.447 125.883 306.902 120.077 303.316 121.522C286.178 128.429 269.471 136.65 253.545 146.165L253.521 140.476C253.498 130.895 253.648 120.92 255.312 112.166C256.144 106.1 257.543 99.6208 259.697 94.7468C262.36 79.8038 304.075 28.5118 374.911 18.7638ZM289.648 333.746C291.908 331.599 296.127 334.159 298.139 334.095C303.284 334.799 308.172 336.972 311.984 339.654C314.501 341.064 316.265 342.388 317.739 343.606L317.779 343.595C317.768 343.595 317.754 343.606 317.742 343.609L317.881 343.703C320.027 345.228 327.884 353.817 322.92 351.507C322.55 351.026 322.171 350.564 321.789 350.111C321.748 350.173 321.691 350.234 321.623 350.293L321.902 350.707C326.121 357.054 318.837 350.367 317.716 348.591C317.663 348.634 317.603 348.663 317.544 348.694L319.003 350.471C319.207 350.723 319.368 350.924 319.501 351.094L319.809 351.392C324.687 356.186 324.839 360.501 319.172 353.412C319.395 353.746 319.574 354.1 319.599 354.414L319.935 354.843C324.384 360.576 320.765 358.54 318.554 356.091L318.369 355.881L318.407 355.938C320.464 359.107 316.383 356.883 315.661 355.188L315.631 355.111C314.845 354.47 314.361 353.751 314.196 353.569L314.165 353.538C310.339 349.618 304.793 346.301 300.082 344.794C299.399 344.664 298.708 344.56 298.01 344.486C295.177 343.854 292.313 343.421 289.419 343.187C289.065 343.145 288.706 342.885 288.438 342.549C284.062 342.402 285.413 340.608 287.228 340.275L287.26 340.27L286.9 340.239C284.091 339.965 282.173 338.957 285.013 338.339L285.373 338.267C285.329 338.198 285.29 338.129 285.252 338.06C282.82 337.793 284.407 335.429 285.757 336.001C285.189 334.144 287.785 335.071 288.109 334.795C288.356 334.521 288.663 334.279 288.84 334.266C289.622 333.714 289.243 333.764 289.648 333.746ZM304.528 303.681L303.958 304.014C303.497 304.283 303.023 304.462 302.547 304.567C303.219 304.853 303.883 305.162 304.54 305.492C304.53 305.088 304.522 304.686 304.522 304.283L304.528 303.681Z" fill="black"/>
<path fill-rule="evenodd" clip-rule="evenodd" d="M516.042 438.159C508.675 440.293 500.768 440.483 493.259 438.28C486.448 436.281 479.455 431.882 474.442 426.062C469.989 420.892 467.105 414.608 467.219 407.901C467.232 407.135 467.506 406.496 467.927 405.999C468.38 405.465 469.014 405.098 469.693 404.939C470.391 404.775 471.128 404.833 471.757 405.119C472.326 405.377 472.813 405.816 473.118 406.457C473.888 407.469 474.655 408.466 475.426 409.435C481.62 417.084 487.618 422.8 496.932 424.85C501.985 425.962 507.032 425.469 511.663 423.771C516.62 421.954 521.102 418.76 524.613 414.672C526.2 412.824 528.073 412.07 529.905 412.057C531.982 412.043 534.034 413.007 535.579 414.549C537.099 416.065 538.116 418.124 538.209 420.279C538.29 422.17 537.673 424.145 536.032 425.907C530.626 431.711 523.621 435.964 516.042 438.159ZM515.814 342.367C523.366 346.957 534.872 357.66 526.748 369.04C517.186 379.073 503.418 367.569 496.634 362.366C490.343 358.334 483.275 368.705 489.112 373.413C538.136 409.708 558.031 343.567 519.634 336.97C515.406 336.244 513.836 340.947 515.814 342.367ZM445.175 322.17C442.748 320.618 439.893 320.085 436.729 321.525C434.256 322.649 429.919 326.398 426.901 331.325C424.836 334.697 423.372 338.652 423.677 342.771C423.748 343.728 423.394 344.433 422.837 344.955C422.396 345.367 421.76 345.669 421.013 345.764C420.379 345.844 419.669 345.772 419.091 345.592C417.993 345.249 417.412 344.537 417.193 343.955C415.08 338.343 415.99 332.08 418.358 326.43C421.555 318.805 427.359 312.418 431.162 310.359C437.67 306.834 445.347 306.671 451.864 310.262C457.411 313.319 460.88 318.254 464.33 323.283C465.063 324.353 465.791 325.414 466.544 326.457C468.051 328.546 468.201 330.619 467.617 332.396C466.971 334.364 465.321 336.026 463.259 336.895C461.353 337.699 459.141 337.812 457.183 336.986C455.529 336.289 454.012 334.929 453.051 332.622C451.434 328.736 448.739 324.45 445.175 322.17V322.17ZM568.441 330.814C566.779 331.681 565.478 331.942 563.634 331.389C562.615 331.083 561.607 330.496 560.818 329.707C560.036 328.925 559.472 327.953 559.252 326.874C558.713 324.212 557.256 321.719 555.181 320.095C553.406 318.706 551.167 317.97 548.683 318.385C546.002 318.833 543.449 320.552 541.69 322.579C541.102 323.257 540.641 324.027 540.178 324.792C539.311 326.223 538.469 327.553 537.274 328.603C536.821 329.003 536.138 329.28 535.477 329.28C535.208 329.28 534.935 329.236 534.676 329.155C532.008 326.478 531.495 324.446 531.581 322.432C531.671 320.319 532.504 318.18 533.85 316.184C537.007 311.502 543.003 307.663 547.048 306.793C552.589 305.603 558.091 307.032 562.503 310.127C567.042 313.311 570.405 318.254 571.454 323.825C571.706 325.167 571.599 326.615 571.088 327.871C570.589 329.098 569.719 330.149 568.441 330.814ZM457.394 272.253C454.069 275.492 450.134 275.994 446.153 276.44C443.941 276.691 442.175 276.892 440.437 277.285C435.661 278.363 430.939 279.987 426.632 282.325C422.129 284.77 417.222 287.718 413.692 291.495C412.853 292.394 412.062 293.337 411.269 294.283C410.547 295.144 409.851 295.974 409.117 296.774C408.274 297.693 407.474 298.656 406.679 299.617C406.187 300.427 406.09 300.627 405.99 300.834C405.841 301.146 405.668 301.495 405.47 301.87C405.198 302.382 404.881 302.944 404.548 303.453C403.994 304.383 403.697 304.639 403.44 304.753C403.014 304.943 402.61 305.037 402.218 304.986C401.851 304.939 401.504 304.762 401.162 304.473C399.455 303.031 398.952 300.664 399.004 298.151C399.082 294.339 400.488 290.117 401.785 287.522C404.799 281.492 408.979 275.224 414.006 270.724C419.742 265.587 426.018 261.698 433.226 259.018C437.705 257.352 442.891 255.823 447.771 256.016C451.284 256.155 454.637 257.2 457.407 259.807C459.107 261.408 459.923 263.685 459.923 265.96C459.923 268.28 459.076 270.615 457.394 272.253ZM575.203 301.918C574.991 302.264 574.699 302.503 574.373 302.646C574.032 302.797 573.651 302.84 573.285 302.779C572.921 302.717 572.575 302.552 572.3 302.3C572.037 302.058 571.837 301.737 571.747 301.345C569.54 291.649 565.253 284.436 556.104 279.784C551.604 277.495 546.429 276.041 541.53 274.882C540.106 274.545 538.602 274.327 537.087 274.106C532.339 273.413 527.557 272.619 524.462 268.781C522.597 266.469 521.814 263.513 522.256 260.809C522.673 258.263 524.161 255.929 526.865 254.53C533.597 251.049 541.964 254.465 548.763 257.374C549.267 257.59 549.762 257.802 550.246 258.007C556.895 260.813 562.959 264.517 567.944 269.815C571.899 274.018 575.563 280.231 577.039 286.623C578.267 291.941 577.978 297.369 575.203 301.918Z" fill="black"/>
</svg>
