<svg width="818" height="1200" viewBox="0 0 818 1200" fill="none" xmlns="http://www.w3.org/2000/svg">
<path fill-rule="evenodd" clip-rule="evenodd" d="M48 817.888L764.472 874.767L765.222 879.636C777.228 957.826 783.292 1010.87 783.415 1038.77L783.417 1039.63C783.417 1067.3 791.91 1111.3 808.896 1171.63L809.947 1175.35L47 1176.68L38 995.066L48 817.888ZM472.17 428.183C501.302 429.621 530.662 442.11 532.93 450.092C537.98 467.869 546.102 543.966 572.812 555.657C599.521 567.348 656.543 556.689 672.846 584.609C689.149 612.529 742.69 726.341 742.69 752.861C742.69 770.54 568.208 776.677 219.244 771.271C223.698 628.87 242.271 554.014 274.961 546.704L277.88 546.059C325.155 535.732 353.41 535.399 369.537 518.751C385.993 501.764 388.98 472.606 395.807 450.092C399.568 437.687 436.421 426.419 472.17 428.183Z" fill="#D08B5B"/>
<path fill-rule="evenodd" clip-rule="evenodd" d="M536.057 472.689C536.167 472.604 536.278 472.579 536.397 472.639C538.667 473.729 539.137 475.909 539.917 478.179C541.057 481.499 542.377 484.739 543.597 488.029C546.028 494.629 548.347 501.219 551.057 507.709C553.837 514.389 556.717 520.949 560.017 527.399C561.607 530.519 563.317 533.579 565.057 536.619C566.257 538.729 567.377 541.629 568.957 543.609C569.077 542.979 569.247 542.379 569.447 541.819C569.238 541.919 569.037 542.029 568.847 542.149C568.447 542.399 567.967 541.899 568.207 541.509C569.067 540.089 570.187 539.129 571.467 538.479C575.007 534.549 653.036 553.304 674.367 574.369C713 612.52 739.077 659.689 756.227 709.869C765.697 737.559 774.417 765.519 783.427 793.359C792.947 822.799 802.887 852.109 812.427 881.529C814.517 887.999 809.957 893.879 804.197 896.009C793.467 899.969 782.657 903.699 771.757 907.149C777.047 927.459 780.747 948.199 783.407 968.999C788.897 1011.89 789.587 1055.65 798.238 1098.09C800.224 1107.83 802.737 1117.43 805.392 1127.01L806.007 1129.22C807.587 1134.84 809.028 1140.51 810.967 1146.01C812.637 1150.74 814.797 1155.51 815.967 1160.39C817.337 1166.13 815.317 1172.4 809.947 1175.35C805.637 1177.72 799.467 1176.74 796.867 1172.29C796.337 1171.38 796.017 1170.39 795.887 1169.39C795.497 1168.56 795.137 1167.71 794.817 1166.84C794.692 1166.5 794.582 1166.16 794.477 1165.81L794.167 1164.77C793.407 1162.29 792.707 1159.79 792.007 1157.29C790.867 1153.28 789.719 1149.28 788.451 1145.3L787.807 1143.32C784.667 1133.76 781.857 1124.12 779.407 1114.36C770.639 1079.36 768.779 1043.13 766.372 1007.26L766.247 1005.41C764.067 973.269 762.767 941.199 765.437 909.129L765.072 909.247V909.247L764.707 909.359C761.238 910.419 757.757 911.459 754.267 912.469C754.157 912.509 754.057 912.549 753.947 912.579C751.713 913.27 749.417 913.927 747.082 914.538L745.677 914.899L744.687 915.169L743.644 915.465C740.337 916.424 736.966 917.527 733.537 917.419C727.857 918.329 722.077 918.879 716.397 918.899C718.147 947.509 720.167 976.099 722.577 1004.66C724.997 1033.37 728.207 1061.97 731.537 1090.57C733.177 1104.7 734.937 1118.8 736.877 1132.88C737.857 1140.02 738.877 1147.12 740.177 1154.2C741.517 1161.44 743.887 1169.18 742.457 1176.5C742.427 1176.49 742.397 1176.48 742.367 1176.48C741.887 1178.6 740.607 1180.5 738.377 1181.81C734.287 1184.2 728.567 1182.8 726.217 1178.62C726.017 1178.27 725.827 1177.91 725.647 1177.54C723.238 1178.57 720.597 1178.97 717.357 1179L673.417 1179.44V1179.44C653.447 1179.64 633.477 1179.85 613.497 1180.14C550.768 1181.06 488.039 1182.13 425.31 1182.89L401.787 1183.16C366.507 1183.53 331.207 1184.26 295.927 1184.25C278.278 1184.25 260.647 1184.19 242.997 1183.76C234.447 1183.55 225.917 1183.22 217.377 1182.87L215.869 1182.8C209.051 1182.46 201.813 1181.83 195.147 1183.36C193.307 1186.94 188.607 1187.68 186.147 1184.02C180.525 1175.64 178.991 1163.96 177.952 1153.72L177.587 1150.04C176.437 1138.57 175.427 1127.1 174.677 1115.61C172.017 1074.9 171.047 1034.15 172.267 993.359C172.887 972.569 174.797 951.899 177.057 931.229C177.767 924.779 178.507 918.339 179.307 911.909L179.32 909.622C179.322 908.891 179.317 908.194 179.297 907.539L179.097 901.334C178.932 896.163 178.778 890.988 178.714 885.814L178.687 882.709L178.657 876.929C173.717 876.459 168.447 874.819 164.187 874.029C157.278 872.739 150.387 871.349 143.517 869.879C129.757 866.919 116.147 863.419 102.627 859.549L99.7512 858.723C87.2759 855.128 74.6288 851.295 62.8266 845.919C58.2066 843.809 53.5966 841.429 49.5466 838.309C49.3066 841.589 48.9366 844.859 48.7166 848.109C48.2776 854.539 47.7566 860.949 47.3266 867.379L46.9154 873.496C46.24 883.69 45.6316 893.874 45.3566 904.099C44.1366 948.699 43.9266 993.489 46.2866 1038.06C47.4566 1060.37 49.1266 1082.68 51.5366 1104.9C52.7166 1115.83 53.9666 1126.79 55.5066 1137.68C57.0966 1148.87 59.9666 1159.99 60.8466 1171.26C61.6866 1182.13 45.0666 1183.71 42.3366 1173.77C39.0677 1161.85 38.235 1148.99 36.5119 1136.74L36.3166 1135.38C34.4066 1122.36 32.8766 1109.29 31.5566 1096.2C26.9994 1051.05 25.8166 1005.67 28.2066 960.349C29.3429 938.643 32.0371 917.022 35.2979 895.546L35.6766 893.069C37.1611 883.451 38.5507 873.833 40.2318 864.257L40.8766 860.669C42.3866 852.439 43.5466 843.489 45.9966 835.259L45.2684 834.587C43.9068 833.319 42.4312 831.851 41.3566 830.269C37.6566 829.769 34.5066 827.109 34.8966 822.279C36.1666 806.409 41.9666 790.269 47.1366 775.289C52.3266 760.229 58.3466 745.449 65.1666 731.049C89.1566 680.439 123.707 634.489 165.957 597.679C188.367 578.149 212.927 560.829 240.067 548.499C253.447 542.409 267.287 537.699 281.787 535.159C288.967 533.899 296.217 532.919 303.517 532.709C309.439 529.212 316.471 530.683 322.205 534.517L322.517 534.729H322.528L323.997 535.019V535.019C324.357 535.089 324.347 535.659 323.997 535.739C323.977 535.739 323.947 535.749 323.927 535.759C324.867 536.499 325.757 537.289 326.587 538.139C329.327 540.939 329.317 544.319 327.907 547.049C336.297 554.829 341.597 564.819 347.147 574.889C353.097 585.669 360.887 594.989 370.367 602.849C405.117 631.669 456.227 644.419 499.767 630.809C531.787 620.809 559.137 593.739 566.697 561.149C564.907 561.789 562.967 561.889 561.127 561.229C552.486 558.148 549.192 548.705 545.887 540.809L545.727 540.429C542.497 532.779 539.787 525.009 537.647 516.989C535.488 508.889 534.217 500.339 533.687 491.979C533.482 488.673 533.572 485.368 533.743 482.062L533.895 479.329C534.012 476.852 533.975 474.322 536.057 472.689ZM395.467 450.399C395.587 450.099 396.057 449.939 396.237 450.299C403.886 466.079 398.867 487.699 391.636 502.749C384.067 518.489 372.667 530.429 359.157 540.759C357.297 542.179 355.386 543.579 353.447 544.949C342.176 552.909 332.136 531.449 345.147 527.349C358.707 520.459 369.727 508.179 377.386 495.279C381.527 488.309 385.197 481.049 388.007 473.429C390.807 465.829 392.487 457.919 395.467 450.399Z" fill="black"/>
<path fill-rule="evenodd" clip-rule="evenodd" d="M623.581 283.192C623.183 260.79 622.743 237.94 619.413 215.756C616.157 194.068 607.2 174.464 591.808 158.715C559.115 125.262 511.725 117.091 467.613 109.603L392.194 96.8001C369.185 92.8951 344.638 86.6531 321.391 92.1911C309.936 94.9201 300.208 101.26 291.317 108.761C282.747 115.991 273.533 123.755 267.726 133.482C261.909 143.223 259.908 154.61 258.017 165.627C255.884 178.048 254.227 190.566 253.05 203.114C250.691 228.254 250.369 253.583 252.08 278.775C252.909 290.994 254.228 303.178 255.912 315.308C256.747 321.323 257.691 327.323 258.757 333.302C259.071 335.065 259.31 337.017 259.632 338.989C257.253 345.755 255.901 352.762 256.01 359.739C256.331 380.291 273.678 393.23 291.166 400.177C301.306 404.205 311.907 406.942 321.87 411.442C332.351 416.175 339.485 423.848 346.651 432.601C360.318 449.295 375.741 464.299 393.352 476.817C430.69 503.358 477.982 515.911 523.286 506.383C534.156 504.097 545.122 500.547 554.893 495.198C565.209 489.551 572.966 481.368 579.48 471.693C591.575 453.732 600.249 433.507 606.811 412.926C613.504 391.932 618.255 370.9 620.846 349.009C623.428 327.189 623.972 305.147 623.581 283.192V283.192Z" fill="#D08B5B"/>
<path fill-rule="evenodd" clip-rule="evenodd" d="M382.911 18.7638C414.121 14.4708 457.198 28.4238 472.741 56.5578C546.947 39.0638 640.54 38.4908 701.701 96.7278C765.52 165.81 685.36 256.895 632.207 277.431C636.077 296.238 630.043 416.723 587.348 470.466C553.464 516.002 474.557 537.017 438.044 482.628L437.759 482.179C433.848 475.898 437.217 476.099 441.232 480.772C476.986 512.214 525.599 512.751 563.06 479.569C633.268 418.919 626.029 270.209 592.621 184.178C497.491 173.73 395.637 202.563 329.932 274.172L334.375 300.92C335.132 305.477 335.992 310.03 336.648 314.603C337.068 317.533 337.115 320.447 335.085 322.819C328.382 330.649 317.085 318.883 307.79 314.203C305.046 313.817 302.297 313.668 299.601 313.858C254.943 319.61 263.742 406.24 312.824 391.055C316.948 388.486 320.491 389.27 322.091 392.998C333.79 403.714 341.504 422.826 360.941 441.234C367.799 448.139 374.04 453.916 381.754 459.455C386.285 464.037 399.957 468.709 395.623 476.55C387.427 494.392 339.096 438.347 330.551 422.848C303.778 433.42 274.108 429.829 246.363 427.245C99.9933 419.635 119.533 265.345 239.509 167.934C262.093 151.308 287.01 137.745 312.911 127.308C316.447 125.883 314.902 120.077 311.316 121.522C294.178 128.429 277.471 136.65 261.545 146.165L261.521 140.476C261.498 130.895 261.648 120.92 263.312 112.166C264.144 106.1 265.543 99.6208 267.697 94.7468C270.36 79.8038 312.075 28.5118 382.911 18.7638ZM297.648 333.746C299.908 331.599 304.127 334.159 306.139 334.095C311.284 334.799 316.172 336.972 319.984 339.654C322.501 341.064 324.265 342.388 325.739 343.606L325.779 343.595C325.768 343.595 325.754 343.606 325.742 343.609L325.881 343.703C328.027 345.228 335.884 353.817 330.92 351.507C330.55 351.026 330.171 350.564 329.789 350.111C329.748 350.173 329.691 350.234 329.623 350.293L329.902 350.707C334.121 357.054 326.837 350.367 325.716 348.591C325.663 348.634 325.603 348.663 325.544 348.694L327.003 350.471C327.207 350.723 327.368 350.924 327.501 351.094L327.809 351.392C332.687 356.186 332.839 360.501 327.172 353.412C327.395 353.746 327.574 354.1 327.599 354.414L327.935 354.843C332.384 360.576 328.765 358.54 326.554 356.091L326.369 355.881L326.407 355.938C328.464 359.107 324.383 356.883 323.661 355.188L323.631 355.111C322.845 354.47 322.361 353.751 322.196 353.569L322.165 353.538C318.339 349.618 312.793 346.301 308.082 344.794C307.399 344.664 306.708 344.56 306.01 344.486C303.177 343.854 300.313 343.421 297.419 343.187C297.065 343.145 296.706 342.885 296.438 342.549C292.062 342.402 293.413 340.608 295.228 340.275L295.26 340.27L294.9 340.239C292.091 339.965 290.173 338.957 293.013 338.339L293.373 338.267C293.329 338.198 293.29 338.129 293.252 338.06C290.82 337.793 292.407 335.429 293.757 336.001C293.189 334.144 295.785 335.071 296.109 334.795C296.356 334.521 296.663 334.279 296.84 334.266C297.622 333.714 297.243 333.764 297.648 333.746ZM312.528 303.681L311.958 304.014C311.497 304.283 311.023 304.462 310.547 304.567C311.219 304.853 311.883 305.162 312.54 305.492C312.53 305.088 312.522 304.686 312.522 304.283L312.528 303.681Z" fill="black"/>
<path fill-rule="evenodd" clip-rule="evenodd" d="M461.787 447.677C461.787 447.677 475.956 458.616 502.378 458.616C528.8 458.616 544.148 448.83 544.148 448.83C544.148 448.83 520.988 434.761 502.378 433.622C483.768 432.483 461.787 447.677 461.787 447.677Z" fill="#FF6C6C"/>
<path fill-rule="evenodd" clip-rule="evenodd" d="M430.285 419.87C430.39 408.852 439.938 406.952 449.008 408.421C464.363 410.905 479.775 412.653 495.338 412.968L498.02 413.015C498.452 412.385 499.174 411.907 500.154 411.802C508.781 410.87 517.594 411.021 526.268 410.765C533.835 410.543 541.611 409.786 549.177 410.38L549.779 410.433C559.026 411.328 568.784 416.048 567.668 426.9C566.641 436.949 557.035 445.845 549.364 451.429C547.813 452.548 546.227 453.597 544.595 454.553C544.083 455.206 543.336 455.661 542.473 455.754C534.919 459.834 526.584 462.248 517.956 463.052C499.664 464.754 478.399 462.912 460.83 454.985C455.118 452.408 449.79 449.19 445.08 445.238C437.817 439.141 430.204 429.896 430.285 419.87ZM503.357 439.717C496.024 439.496 488.703 440.522 481.719 442.784C476.986 444.311 472.672 447.248 468.137 449.289C483.421 455.118 501.177 456.389 516.857 455.328C523.736 454.862 530.405 453.276 536.619 450.548C535.651 449.849 534.671 449.138 533.645 448.519C530.545 446.642 527.303 445.045 523.922 443.774C517.336 441.303 510.387 439.939 503.357 439.717ZM504.815 345.367C502.836 343.947 504.406 339.244 508.634 339.971C547.031 346.568 527.136 412.708 478.112 376.413C472.276 371.705 479.344 361.334 485.634 365.366L487.868 367.088C495.13 372.655 507.142 381.07 515.748 372.04C523.872 360.66 512.366 349.957 504.815 345.367ZM530.809 295.309C538.971 288.345 549.208 293.478 555.217 300.531L556.277 301.792C557.479 303.231 558.81 304.907 559.61 306.699C566.269 301.029 575.299 297.039 583.94 299.629C592.32 302.15 597.099 310.15 595.66 318.739C594.027 328.507 586.637 335.071 578.696 340.148L576.444 341.578C566.902 347.661 557.973 353.789 550.12 362.15C548.839 363.509 546.07 363.329 545.23 361.52L544.553 360.065L543.87 358.609C538.299 346.73 532.33 334.929 527.429 322.77C523.799 313.759 522.62 302.289 530.809 295.309ZM439.009 300.18C444.989 293.22 455.119 288.56 463.11 295.31C471.619 302.5 469.949 314.39 466.159 323.56C461.595 334.62 456.265 345.436 451.143 356.285L450.049 358.61C449.589 359.58 449.139 360.55 448.69 361.52C447.849 363.33 445.07 363.51 443.799 362.15C436.19 354.05 427.581 348.057 418.386 342.166L415.61 340.4C407.539 335.28 399.909 328.67 398.249 318.74C396.829 310.17 401.579 302.12 409.969 299.629C418.629 297.06 427.639 301.02 434.309 306.7C435.104 304.862 436.473 303.132 437.766 301.618L439.009 300.18ZM448.708 251.686C451.629 255.478 448.51 261.675 444.245 262.655C438.963 263.87 433.627 263.131 428.441 264.638C423.689 266.019 419.137 268.786 415.064 271.544C410.419 274.688 406.141 278.198 402.21 282.197C399.872 284.576 396.926 290.212 393.32 290.317C389.735 290.422 394.547 279.211 394.945 278.241C397.772 271.336 401.743 264.982 406.71 259.416C416.511 248.433 437.268 236.844 448.708 251.686ZM558.159 248.651L560.606 249.33C566.66 251.013 573.123 253.081 578.317 256.71L578.725 256.999L579.353 257.459C585.874 262.32 595.097 272.02 590.479 280.482C590.16 281.065 589.484 281.123 588.94 280.885C582.796 278.194 578.241 272.82 571.706 270.572L570.5 270.162C564.171 268.03 556.341 265.788 549.529 265.992C544.739 267.549 538.27 266.26 537.023 260.429L536.967 260.143L536.859 259.539C536.141 255.555 537.209 250.476 541.328 248.556C546.972 245.926 552.478 247.096 558.159 248.651Z" fill="black"/>
</svg>
