<svg width="1166" height="1196" viewBox="0 0 1166 1196" fill="none" xmlns="http://www.w3.org/2000/svg">
<path fill-rule="evenodd" clip-rule="evenodd" d="M1105.74 746.357C1115.98 741.01 1125.99 735.201 1135.83 729.155C1142.76 725.008 1136.62 714.562 1129.51 718.336C1125.88 720.267 1122.26 722.217 1118.62 724.135C1121.48 721.672 1124.14 718.99 1126.51 716.067L1126.35 715.904C1135.51 707.693 1123.74 692.201 1113.32 698.946C1104.13 705.608 1094.85 712.406 1084.3 716.793C1062.45 726.059 1038.35 727.592 1014.89 727.86C1006.31 727.215 998.114 728.702 989.786 730.359C993.051 717.261 1001.22 707.37 1005.56 694.684C1008.75 681.876 990.266 673.151 983.714 685.463C982.106 688.486 980.573 691.544 979.074 694.618C964.912 707.499 941.264 706.364 926.981 720.195C918.845 727.416 914.864 737.213 913.291 747.047C912.223 753.724 913.883 760.418 909.846 766.332C890.327 793.94 859.485 837.578 843.822 867.961C832.732 795.763 803.121 706.463 772.53 640.446C762.414 619.333 750.841 598.703 735.649 580.807C737.371 574.839 731.293 564.245 727.428 567.506C715.531 552.973 694.501 549.21 677.591 541.985C654.764 532.224 635.825 511.936 626.515 488.876C614.553 444.964 585.106 439.386 544.267 441.327C505.183 441.278 476.266 457.995 467.738 497.781C450.413 527.978 409.507 522.984 380.078 530.979C358.51 535.906 337.579 543.523 317.687 553.194C295.558 532.203 216.303 620.298 209.099 642.97C213.34 643.792 217.555 644.781 221.732 645.987C225.452 647.063 223.89 652.682 220.138 651.782C215.469 650.661 210.77 649.889 206.049 649.353C205.905 649.804 205.779 650.253 205.685 650.697C205.155 650.661 204.626 650.616 204.096 650.58C205.271 651.191 206.402 651.901 207.504 652.817C210.168 655.029 206.7 659.298 203.869 657.535C201.202 655.54 197.709 655.855 194.51 655.185C194.32 661.763 170.847 654.404 167.201 652.224C150.996 650.197 134.325 652.372 119.197 644.557C99.0679 640.318 78.7879 635.63 58.8849 630.232C53.6159 632.286 48.6639 639.636 52.8489 645.03C55.2029 647.484 52.1769 651.492 49.2129 649.747C39.2719 643.896 31.5839 634.762 25.0659 624.922C21.9979 621.827 16.5519 622.493 12.4299 621.208C11.8789 622.198 11.5539 623.302 11.5589 624.434C-5.92612 627.312 6.54688 646.409 15.3369 652.359C10.6739 655.395 10.4969 661.341 10.9049 666.306C9.91688 668.074 9.58688 670.266 10.4469 672.248C13.7349 679.825 20.8459 686.206 26.2529 692.345C32.2229 699.124 37.5459 705.941 44.8099 711.437C72.4979 732.542 105.911 744.342 140.189 748.957C152.36 750.826 169.867 753.687 177.403 763.979C175.554 776.193 172.159 787.907 169.079 799.817C164.772 815.627 165.065 832.178 165.008 848.296C164.406 847.812 163.25 847.912 163.078 848.834C162.076 855.515 161.331 862.347 157.27 867.961C153.71 878.4 151.341 889.535 150.01 900.503C144.678 952.498 143.405 1006.03 155.427 1057.21C160.066 1076.2 167.611 1094.25 177.891 1110.86C180.956 1115.82 185.884 1117.27 190.309 1116.3C205.119 1123.99 223.776 1126.46 239.739 1124.5C294.16 1109.1 275.198 1146.2 351.501 1134.84C483.208 1118.06 616.312 1151.03 747.739 1131.67C750.976 1156.67 793.35 1149.5 808.069 1138.93C852.203 1106.12 874.117 1002.25 896.266 949.552C911.491 908.018 936.985 834.454 970.372 806.584C980.383 798.754 992.484 794.632 1004.59 791.304C1049.78 779.66 1095.14 768.648 1140.42 757.327C1148.09 755.437 1146.71 742.342 1138.5 743.182C1127.61 744.297 1116.67 745.306 1105.74 746.357Z" fill="#D08B5B"/>
<path fill-rule="evenodd" clip-rule="evenodd" d="M99.7948 738.568C96.7348 738.189 93.7348 737.099 90.7548 736.239C86.2048 734.909 81.7448 733.359 77.3548 731.589C68.2948 727.96 59.5048 723.669 51.2648 718.419C37.9548 709.929 26.1948 699.049 17.3248 685.949L16.7159 685.035C11.652 677.322 2.31124 660.195 12.7848 654.339C6.03455 648.699 -0.345455 638.569 0.014545 630.749C0.524545 619.689 14.0845 619.84 21.0945 624.529C25.6845 627.599 29.1245 631.899 32.5745 636.13C36.3945 640.829 40.4745 645.309 44.7145 649.619C45.8395 650.759 46.9758 651.876 48.1317 652.975L49.2944 654.069C49.1145 653.639 48.9545 653.199 48.8145 652.748C46.4745 645.459 49.2645 635.969 56.5545 632.629C61.0158 630.584 65.6489 631.832 69.972 633.568L70.6345 633.839C76.4545 636.248 82.3445 638.379 88.4045 640.089C113.105 647.059 138.885 648.219 164.195 651.699C173.945 653.049 183.875 654.748 193.575 657.248C197.274 641.538 206.344 626.479 216.184 614.089C263.304 554.818 341.014 535.229 412.104 522.549C418.584 521.399 423.955 529.979 427.725 527.949C434.875 524.109 441.165 518.669 446.685 512.759C458.455 500.149 466.805 485.319 476.615 471.269C481.465 464.329 492.625 470.539 488.125 477.989L485.92 481.63C476.843 496.544 466.792 511.913 453.775 523.479C446.855 529.619 439.175 534.469 430.395 537.498C423.745 539.789 414.415 541.719 407.135 539.498L406.261 538.225C406.55 538.651 406.841 539.075 407.135 539.499C426.134 567.029 449.974 590.329 475.094 612.319C500.45 634.502 527.803 654.368 555.321 673.791L557.614 675.409C602.444 642.71 640.314 600.059 666.884 551.33C661.315 550.659 655.805 547.09 651.045 544.429C645.315 541.21 639.925 537.369 635.725 532.249C626.575 521.099 627.765 506.729 626.115 493.199C626.015 492.359 627.125 492.149 627.635 492.569C632.595 496.689 634.335 503.439 636.405 509.269C638.685 515.679 641.265 520.96 646.495 525.469C651.365 529.67 657.305 532.759 663.075 535.509C666.05 536.92 680.822 540.546 682.504 543.549C708.025 537.559 732.885 547.909 751.795 565.369C770.065 582.239 783.475 604.169 795.315 625.819C807.945 648.919 818.295 672.998 827.215 697.748C836.255 722.869 843.185 748.539 846.995 774.979C850.211 797.27 852.183 819.912 853.459 842.452L853.615 845.269C872.494 815.639 891.844 786.319 911.594 757.259C907.104 745.269 912.074 733.029 920.484 723.769C929.804 713.519 942.694 708.759 955.024 703.219L956.645 702.486C962.588 699.775 968.511 696.79 973.644 692.729C978.584 688.809 982.214 683.409 987.414 679.799C994.974 674.539 1008.69 675.659 1009.04 687.149C1009.22 693.46 1006.51 700.379 1004.03 706.049C1001.22 712.46 997.434 718.269 992.934 723.609C992.726 723.858 992.499 724.054 992.268 724.21L992.095 724.319C998.315 725.349 1004.58 726.179 1010.97 726.469C1023.86 727.059 1036.89 726.109 1049.51 723.389C1062.43 720.609 1074.95 716.09 1086.57 709.789C1096.5 704.409 1105.7 697.449 1116.98 695.809C1118.02 695.649 1119.07 695.549 1120.15 695.489C1121.95 695.389 1123.75 697.509 1123.04 699.288C1122.65 700.269 1122.24 701.239 1121.79 702.219C1117.89 710.809 1111.91 719.142 1104.45 725.466L1103.87 725.949C1106.5 725.039 1109.09 724.019 1111.64 722.869C1126.63 716.119 1140.23 705.919 1156.3 701.819C1157.06 701.619 1157.83 701.439 1158.6 701.269C1163.57 700.199 1166.19 705.599 1163.27 709.299C1162.8 709.899 1162.33 710.489 1161.84 711.079C1154.67 719.979 1146.76 728.239 1138.04 735.659C1135.05 738.199 1131.97 740.659 1128.83 743.01C1127.51 744.006 1126.18 744.98 1124.84 745.939L1124.17 746.409C1125.74 745.3 1127.29 744.17 1128.83 743.01C1138.67 740.029 1148.37 736.499 1157.86 732.59C1161.63 731.039 1164.56 734.859 1164.96 737.999C1166.3 748.52 1154.62 756.13 1147.02 761.189C1139.4 766.27 1131.01 770.13 1122.42 773.229C1105.91 779.197 1088.56 781.908 1071.24 784.337L1062.83 785.509C1029.53 790.164 994.756 795.731 970.864 821.64C957.474 836.159 948.414 854.199 940.124 871.949C931.844 889.68 924.574 907.88 917.674 926.18C910.524 945.119 904.294 964.409 897.674 983.539C891.594 1001.1 884.332 1018.44 877.139 1035.61L876.004 1038.32C860.734 1074.8 842.494 1109.16 817.074 1139.62C812.884 1144.65 806.114 1137.51 809.984 1132.53C836.574 1098.25 855.074 1057.8 870.344 1017.45C877.294 999.09 883.114 980.289 889.794 961.829L893.769 950.862C899.077 936.244 904.43 921.644 910.014 907.14C917.084 888.789 924.854 870.659 933.744 853.119L934.688 851.272C943.391 834.351 953.732 817.674 967.964 804.869C993.582 781.81 1027.67 776.278 1060.63 771.897L1071 770.53C1084.93 768.679 1098.9 766.634 1112.45 762.909C1120.27 760.77 1127.91 758.029 1135.09 754.249C1137.95 752.749 1140.74 751.1 1143.44 749.3C1135.74 751.56 1127.93 753.409 1119.98 754.859C1116.09 755.569 1112.24 756.1 1108.4 756.47C1098.51 757.448 1088.7 757.408 1078.57 756.879C1077.71 756.828 1077.43 755.479 1078.35 755.309C1085.41 754.055 1092.47 752.486 1099.51 750.784L1101.61 750.269C1101.65 749.1 1102.11 747.859 1103.07 746.68C1106.57 742.42 1113.22 740.239 1117.83 737.229C1122.66 734.079 1127.34 730.68 1131.8 727.039C1135.88 723.71 1139.8 720.189 1143.57 716.51L1144.7 715.399C1144.33 715.77 1143.95 716.141 1143.57 716.509C1133.39 721.21 1123.74 727.239 1113.11 730.96C1104.66 733.929 1095.8 735.929 1086.86 736.639L1086.31 736.683L1085.75 736.719C1076.42 737.389 1067.03 737.119 1057.84 739.139C1056.81 739.369 1056.49 737.989 1057.41 737.599C1065.44 734.259 1073.79 732.969 1082.23 731.409C1082.41 730.749 1082.87 730.159 1083.67 729.779L1085.83 728.748C1092.26 725.659 1098.26 722.542 1103.6 717.529C1108.32 713.099 1112.25 707.92 1115.2 702.179C1103.39 704.769 1093.02 713.719 1082.28 718.749C1070.58 724.239 1058.2 728.179 1045.48 730.42L1044.04 730.668C1020.26 734.633 991.68 734.128 970.385 721.769C969.705 721.369 970.195 720.46 970.895 720.569C976.935 721.559 982.915 722.729 988.895 723.769C987.724 722.699 987.204 720.779 988.554 719.239C993.925 713.084 998.173 706.049 1000.89 698.351L1001.41 696.846C1002.66 693.275 1004.77 687.73 1002.61 684.509C1000.55 681.439 995.704 681.859 992.804 683.159C986.774 685.879 982.764 692.67 977.684 696.769C972.144 701.249 965.844 704.569 959.394 707.539L958.032 708.158C946.876 713.176 934.956 717.4 926.184 726.259C921.464 731.019 917.404 736.969 916.044 743.639C915.424 746.699 915.424 749.849 916.244 752.879C916.894 755.249 918.254 756.71 917.474 759.119C916.454 762.229 912.844 765.949 910.984 768.719C908.824 771.92 906.674 775.129 904.524 778.339C900.234 784.759 895.964 791.199 891.694 797.629C883.154 810.509 874.704 823.449 866.324 836.429C863.598 840.656 860.88 844.887 858.171 849.122L854.115 855.479L851.971 858.83L848.315 864.578C848.445 865.109 848.435 865.669 848.265 866.158C847.641 867.934 846.474 869.147 845.023 870.027L844.764 870.179C823.424 903.909 802.424 937.859 781.214 971.67C780.084 981.989 779.024 992.319 778.104 1002.65C776.014 1026.03 774.584 1049.47 774.124 1072.94C773.904 1084.3 774.814 1095.73 775.304 1107.08C775.544 1112.5 775.873 1117.91 776.302 1123.32L776.617 1127.15C777.04 1132.42 777.279 1137.65 775.384 1142.67C773.704 1147.08 768.584 1148.07 765.554 1144.71C726.025 1143.12 686.465 1141.91 646.905 1141.16C576.095 1139.8 505.255 1140.01 434.435 1141.38C398.865 1142.07 363.285 1143.04 327.725 1144.24C310.205 1144.82 292.675 1145.64 275.145 1145.88C265.7 1146.01 250.835 1142.57 250.073 1131.94L250.055 1131.62C248.875 1131.94 247.655 1132.2 246.405 1132.39C245.848 1132.47 245.314 1132.45 244.82 1132.33L244.575 1132.27C230.496 1136.56 212.687 1130.44 199.309 1126.87L198.205 1126.58C185.435 1123.25 175.175 1118.49 166.805 1107.91C152.155 1089.38 147.155 1064.5 144.555 1041.57C142.115 1019.99 141.975 998.009 144.945 976.469C143.195 958.92 144.905 940.81 146.895 923.359C147.875 914.729 149.025 906.109 150.405 897.529C151.175 892.739 152.185 887.999 153.215 883.269C153.626 881.379 153.968 879.344 154.49 877.377L154.725 876.539C153.125 876.749 151.375 876.399 149.685 875.47C145.665 873.26 144.495 868.789 144.425 864.51C144.205 851.609 145.745 838.34 147.105 825.52C148.475 812.72 150.355 799.869 152.815 787.229L153.451 783.97C155.315 774.514 157.448 764.753 161.205 755.869C147.095 753.469 133.025 750.919 119.335 746.578C112.655 744.448 106.075 741.799 99.7948 738.568ZM836.254 872.819C836.035 872.869 835.825 872.929 835.615 872.989C829.975 874.569 824.275 875.909 818.595 877.349C808.775 879.819 799.175 882.579 790.045 886.869C788.132 911.009 785.297 935.071 782.601 959.145L782.064 963.96C786.204 956.279 790.444 948.659 794.874 941.13C808.364 918.179 822.164 895.409 836.254 872.819ZM158.165 875.21C158.195 878.079 157.595 881.06 157.275 883.819C156.755 888.3 156.335 892.8 155.805 897.279C154.725 906.279 153.805 915.289 153.135 924.329C152.705 930.1 152.425 935.89 152.175 941.68C157.845 920.488 165.355 899.759 172.495 878.998C171.301 878.873 170.081 878.581 168.823 878.247L166.704 877.676C165.455 877.355 161.402 876.358 158.165 875.21ZM854.115 855.479L854.155 856.429C854.305 859.799 852.285 861.699 849.835 862.189C851.255 859.949 852.685 857.709 854.115 855.479ZM205.315 695.76C211.285 696.289 217.135 697.56 222.715 699.76L223.253 699.97C227.38 701.563 233.415 703.564 234.765 707.97C235.145 709.22 234.125 710.249 232.955 710.35C228.475 710.71 223.195 705.909 219.045 704.289C214.425 702.489 209.585 701.149 204.685 700.439C193.675 698.829 182.195 700.05 171.835 704.06C171.225 704.3 170.845 703.329 171.395 703.039C181.835 697.359 193.445 694.71 205.315 695.76ZM78.8048 724.359C78.1144 723.749 77.4244 723.109 76.7444 722.47C71.383 717.398 66.6353 711.478 63.1199 704.974L62.1948 703.213C59.3316 697.67 55.8158 689.773 62.5444 685.779C66.5644 683.39 71.4044 683.989 75.8844 685.439C76.1744 685.529 76.4644 685.63 76.7544 685.729C78.7544 686.43 80.6844 687.269 82.4044 688.069C89.8744 691.499 96.4644 696.489 103.364 700.89C110.841 705.66 118.223 708.71 126.852 710.495L127.664 710.659C135.764 712.26 144.544 713.289 150.194 719.949C151.614 721.63 150.314 724.779 147.864 723.949C132.244 718.68 115.714 717.519 101.374 708.869C95.4344 705.289 89.8144 701.18 83.7444 697.789C80.5244 695.987 77.1999 694.412 73.657 693.332L71.7215 692.762C70.5878 692.431 69.2344 692.104 68.3244 692.43C66.5922 693.03 67.145 693.957 67.681 695.575L67.7344 695.739C71.9444 708.76 83.9444 719.659 95.0644 726.869C97.6144 728.529 100.224 730.05 102.884 731.46C120.89 741.057 141.037 745.523 160.824 750.826C160.824 750.826 172.265 754.019 176.055 755.219C180.275 754.868 185.085 756.359 188.265 758.139C191.355 759.868 193.845 762.189 195.725 764.919C195.725 764.919 197.535 766.429 197.865 768.769C198.815 770.939 199.455 773.278 199.775 775.719C199.955 777.149 199.595 778.248 198.915 779.028C200.96 810.421 192.481 841.637 182.921 871.472L181.974 874.413L181.365 876.278C171.055 907.908 159.225 939.309 153.945 972.288C150.415 994.318 150.525 1017.12 153.115 1039.25L153.297 1040.77C155.849 1061.7 160.759 1085.17 174.065 1102.01C180.851 1110.6 188.892 1114.42 199.172 1117.19L199.735 1117.34C209.035 1119.79 218.635 1123.26 228.225 1124.31C237.125 1125.28 244.585 1121.97 252.595 1118.87L252.605 1118.86C269.475 1103.93 277.135 1082.19 282.795 1060.25C297.465 1003.47 295.645 944.529 287.325 886.919C282.985 856.819 277.085 826.979 271.205 797.149C268.265 782.239 265.095 767.359 262.465 752.399L260.903 743.595C260.041 738.703 259.207 733.808 258.495 728.889C257.535 722.279 257.245 715.779 256.915 709.129C248.835 695.739 237.105 684.709 223.515 676.799C213.785 671.129 203.485 667.199 192.855 664.349C162.465 656.159 129.335 656.739 98.7545 650.439C88.4815 648.325 78.73 645.187 68.9836 641.426L67.6545 640.909C63.1845 639.169 58.6245 638.199 56.4045 643.469C54.8245 647.219 55.7645 651.119 58.1345 654.269C63.9445 661.989 75.6245 665.569 84.4145 668.349C89.7045 670.029 95.1045 671.359 100.565 672.349C106.025 673.339 111.505 673.589 116.745 675.519C118.765 676.259 119.165 679.469 116.745 680.038C110.105 681.589 103.425 680.259 96.8245 678.969C89.5745 677.538 82.4345 675.509 75.4945 672.939C74.2145 672.467 72.8897 671.969 71.5406 671.441L70.5245 671.039C71.5745 671.8 72.6245 672.55 73.6845 673.3C73.9645 673.499 73.7945 674.029 73.4245 673.899C57.1065 667.811 42.2591 656.827 30.7569 643.831L30.1845 643.18C26.1345 638.539 16.9045 624.499 9.12455 628.409C1.81894 632.076 14.2724 646.212 19.0052 651.992L19.5547 652.669C24.9347 652.809 30.1447 656.158 34.5047 658.858C42.0747 663.549 49.9847 667.589 58.0447 671.368C74.0647 678.898 91.0747 684.209 106.925 692.118C107.135 692.229 106.975 692.498 106.775 692.469C96.6847 690.858 86.7047 688.288 76.9547 685.099L76.5197 684.963L76.0847 684.818C69.9947 682.818 63.9847 680.559 58.0747 678.148C51.5047 675.469 45.0847 672.459 38.8547 669.049C33.2147 665.969 26.9547 660.419 20.4147 659.599C19.7147 659.509 19.0947 659.498 18.5547 659.549C11.0448 660.179 17.2548 672.619 19.3548 676.339C22.7848 682.449 26.9248 688.089 31.6748 693.239C41.3048 703.699 52.9748 711.989 65.6048 718.439C69.9148 720.639 74.3248 722.579 78.8048 724.359Z" fill="black"/>
<path fill-rule="evenodd" clip-rule="evenodd" d="M679.581 283.192C679.183 260.79 678.743 237.94 675.413 215.756C672.157 194.068 663.2 174.464 647.808 158.715C615.115 125.262 567.725 117.091 523.613 109.603L448.194 96.8001C425.185 92.8951 400.638 86.6531 377.391 92.1911C365.936 94.9201 356.208 101.26 347.317 108.761C338.747 115.991 329.533 123.755 323.726 133.482C317.909 143.223 315.908 154.61 314.017 165.627C311.884 178.048 310.227 190.566 309.05 203.114C306.691 228.254 306.369 253.583 308.08 278.775C308.909 290.994 310.228 303.178 311.912 315.308C312.747 321.323 313.691 327.323 314.757 333.302C315.071 335.065 315.31 337.017 315.632 338.989C313.253 345.755 311.901 352.762 312.01 359.739C312.331 380.291 329.678 393.23 347.166 400.177C357.306 404.205 367.907 406.942 377.87 411.442C388.351 416.175 395.485 423.848 402.651 432.601C416.318 449.295 431.741 464.299 449.352 476.817C486.69 503.358 533.982 515.911 579.286 506.383C590.156 504.097 601.122 500.547 610.893 495.198C621.209 489.551 628.966 481.368 635.48 471.693C647.575 453.732 656.249 433.507 662.811 412.926C669.504 391.932 674.255 370.9 676.846 349.009C679.428 327.189 679.972 305.147 679.581 283.192V283.192Z" fill="#D08B5B"/>
<path fill-rule="evenodd" clip-rule="evenodd" d="M438.911 18.7638C470.121 14.4708 513.198 28.4238 528.741 56.5578C602.947 39.0638 696.54 38.4908 757.701 96.7278C821.52 165.81 741.36 256.895 688.207 277.431C692.077 296.238 686.043 416.723 643.348 470.466C609.464 516.002 530.557 537.017 494.044 482.628L493.759 482.179C489.848 475.898 493.217 476.099 497.232 480.772C532.986 512.214 581.599 512.751 619.06 479.569C689.268 418.919 682.029 270.209 648.621 184.178C553.491 173.73 451.637 202.563 385.932 274.172L390.375 300.92C391.132 305.477 391.992 310.03 392.648 314.603C393.068 317.533 393.115 320.447 391.085 322.819C384.382 330.649 373.085 318.883 363.79 314.203C361.046 313.817 358.297 313.668 355.601 313.858C310.943 319.61 319.742 406.24 368.824 391.055C372.948 388.486 376.491 389.27 378.091 392.998C389.79 403.714 397.504 422.826 416.941 441.234C423.799 448.139 430.04 453.916 437.754 459.455C442.285 464.037 455.957 468.709 451.623 476.55C443.427 494.392 395.096 438.347 386.551 422.848C359.778 433.42 330.108 429.829 302.363 427.245C155.993 419.635 175.533 265.345 295.509 167.934C318.093 151.308 343.01 137.745 368.911 127.308C372.447 125.883 370.902 120.077 367.316 121.522C350.178 128.429 333.471 136.65 317.545 146.165L317.521 140.476C317.498 130.895 317.648 120.92 319.312 112.166C320.144 106.1 321.543 99.6208 323.697 94.7468C326.36 79.8038 368.075 28.5118 438.911 18.7638ZM353.648 333.746C355.908 331.599 360.127 334.159 362.139 334.095C367.284 334.799 372.172 336.972 375.984 339.654C378.501 341.064 380.265 342.388 381.739 343.606L381.779 343.595C381.768 343.595 381.754 343.606 381.742 343.609L381.881 343.703C384.027 345.228 391.884 353.817 386.92 351.507C386.55 351.026 386.171 350.564 385.789 350.111C385.748 350.173 385.691 350.234 385.623 350.293L385.902 350.707C390.121 357.054 382.837 350.367 381.716 348.591C381.663 348.634 381.603 348.663 381.544 348.694L383.003 350.471C383.207 350.723 383.368 350.924 383.501 351.094L383.809 351.392C388.687 356.186 388.839 360.501 383.172 353.412C383.395 353.746 383.574 354.1 383.599 354.414L383.935 354.843C388.384 360.576 384.765 358.54 382.554 356.091L382.369 355.881L382.407 355.938C384.464 359.107 380.383 356.883 379.661 355.188L379.631 355.111C378.845 354.47 378.361 353.751 378.196 353.569L378.165 353.538C374.339 349.618 368.793 346.301 364.082 344.794C363.399 344.664 362.708 344.56 362.01 344.486C359.177 343.854 356.313 343.421 353.419 343.187C353.065 343.145 352.706 342.885 352.438 342.549C348.062 342.402 349.413 340.608 351.228 340.275L351.26 340.27L350.9 340.239C348.091 339.965 346.173 338.957 349.013 338.339L349.373 338.267C349.329 338.198 349.29 338.129 349.252 338.06C346.82 337.793 348.407 335.429 349.757 336.001C349.189 334.144 351.785 335.071 352.109 334.795C352.356 334.521 352.663 334.279 352.84 334.266C353.622 333.714 353.243 333.764 353.648 333.746ZM368.528 303.681L367.958 304.014C367.497 304.283 367.023 304.462 366.547 304.567C367.219 304.853 367.883 305.162 368.54 305.492C368.53 305.088 368.522 304.686 368.522 304.283L368.528 303.681Z" fill="black"/>
<path fill-rule="evenodd" clip-rule="evenodd" d="M506.832 394.757C514.834 378.757 588.223 385.949 588.223 385.949L594.422 436.807C594.422 436.807 559.012 448.19 537.933 445.805C516.854 443.419 498.83 410.757 506.832 394.757Z" fill="white"/>
<path fill-rule="evenodd" clip-rule="evenodd" d="M512.003 421.471C509.468 416.047 561.934 401.256 578.178 411.364C594.422 421.471 589.343 435.256 589.343 435.256C589.343 435.256 521.02 450.84 512.003 421.471Z" fill="#FF8181"/>
<path fill-rule="evenodd" clip-rule="evenodd" d="M502.281 385.29C514.527 371.06 535.152 370.069 552.237 373.627C563.201 375.911 573.876 379.715 585.012 381.125C590.213 381.784 595.47 381.981 600.709 381.884C605.855 381.789 611.009 380.752 616.137 380.945C616.925 380.974 617.223 382.009 616.54 382.43C609.505 386.751 600.028 388.137 591.718 388.982C591.744 389.597 591.781 390.197 591.866 390.706C592.093 392.063 592.3 393.411 592.467 394.777C592.844 397.858 593.266 400.929 593.687 404.004C594.517 410.056 594.778 416.299 596.237 422.245L596.492 423.234C596.83 424.484 596.907 425.611 596.794 426.627L597.132 426.474L598.2 425.957L598.9 425.626C601.454 424.442 603.89 423.58 606.893 423.868C609.179 424.086 611.098 425.645 611.112 428.086C611.169 439.041 596.405 442.564 587.96 444.661L585.483 445.271C574.734 447.893 563.759 450.191 552.703 450.741C534.961 451.622 515.024 446.728 503.418 432.337C492.589 418.91 490.604 398.858 502.281 385.29ZM582.852 431.318C580.99 414.824 560.722 413.917 554.891 424.377C552.304 409.798 514.028 423.117 517.021 426.015C528.365 437.001 545.58 437.99 560.379 435.958C567.916 434.923 575.459 433.238 582.852 431.318ZM560.358 388.088L555.262 387.355L553.255 387.078C540.623 385.387 526.416 384.513 516.03 392.612C512.238 395.568 510.104 399.424 509.307 403.566C519.135 402.109 528.998 400.998 538.891 400.073L541.59 399.825C547.78 399.267 553.967 398.679 560.151 398.062L564.546 397.617L568.939 397.161C570.485 396.999 580.904 396.466 582.863 396.824C583.072 395.064 583.345 391.255 583.787 389.542C576.385 389.793 569.015 389.243 561.656 388.265L560.358 388.088ZM583.814 314.367C591.366 318.957 602.872 329.66 594.748 341.04C585.186 351.073 571.419 339.569 564.634 334.366C558.344 330.334 551.276 340.705 557.112 345.413C606.136 381.708 626.031 315.567 587.634 308.97C583.406 308.244 581.836 312.947 583.814 314.367ZM597.328 333.704L597.691 333.507L597.814 333.432C598.026 333.295 597.891 333.31 597.408 333.477L597.046 333.607V333.863C597.139 333.806 597.238 333.763 597.328 333.704ZM500.617 292.924L500.616 292.699C500.63 286.322 504.344 271.762 513.524 271.762C519.259 271.762 522.741 281.671 523.344 291.886L523.365 292.302C523.631 298.653 521.888 312.534 513.524 312.534C505.072 312.534 500.704 299.387 500.617 292.924V292.924ZM635.773 290.924L635.774 290.699C635.76 284.322 632.046 269.762 622.866 269.762C617.274 269.762 613.825 279.182 613.097 289.12L613.046 289.886C612.684 296.022 614.314 310.534 622.866 310.534C631.318 310.534 635.686 297.387 635.773 290.924V290.924ZM505.855 228.285C513.347 227.146 523.268 229.31 526.761 236.928C528.317 240.322 526.474 244.075 522.551 244.263C513.07 244.717 504.567 242.607 496.245 248.772C492.664 251.426 489.653 255.1 487.126 258.764L486.17 260.159L485.378 261.308C483.662 263.831 482.038 266.571 482.291 269.615C482.366 270.516 481.445 271.371 480.57 271.335C475.116 271.111 474.529 264.273 475.246 260.166C476.58 252.544 480.269 245.389 485.382 239.626C490.752 233.574 497.841 229.504 505.855 228.285ZM609.044 237.535C614.21 234.214 620.818 232.938 626.87 233.427C638.803 234.388 658.822 244.532 656.187 259.107C655.374 263.602 649.122 265.974 645.438 263.48C641.477 260.799 640.513 256.632 637.565 253.128C635.213 250.329 632.232 248.304 629.04 246.579C625.894 244.878 622.254 243.847 618.684 243.471L618.089 243.414C615.94 243.231 605.088 243.28 606.681 247.331C606.993 248.124 605.813 248.752 605.271 248.152C601.944 244.472 605.712 239.677 609.044 237.535Z" fill="black"/>
</svg>
