<svg width="1171" height="1196" viewBox="0 0 1171 1196" fill="none" xmlns="http://www.w3.org/2000/svg">
<path fill-rule="evenodd" clip-rule="evenodd" d="M646.157 433.696C699.813 429.854 773.377 440.49 788.896 501.669C793.709 523.932 803.192 533.703 819.124 548.263C920.252 677.699 567.415 699.455 549.277 573.238C511.065 587.155 469.469 590.102 431.234 604.169C410.497 611.829 391.693 623.917 373.674 636.555C300.195 688.743 227.756 742.422 154.539 794.985C182.872 808.032 236.74 857.846 214.79 891.32C209.676 897.84 202.086 902.335 195.372 907.101L191.832 909.629C184.215 915.087 171.394 924.39 164.304 929.446L162.996 930.398C162.483 930.769 161.905 931.186 161.383 931.559C212.513 1006.31 272.352 1075.29 338.728 1136.87C344.38 1142.12 342.065 1153.87 333.885 1155.24L324.139 1156.67C292.673 1161.25 260.608 1165.38 228.899 1162.89C198.016 1159.53 179.406 1132.19 158.294 1112.39C116.135 1069.3 76.8897 1023.33 41.1437 974.772L40.3994 973.747C29.2741 958.544 14.5074 943.007 13.4267 923.376C11.4557 917.474 16.6427 909.016 21.6267 904.992L23.3282 902.537C50.0596 864.092 80.3131 827.016 118.217 799.175C118.076 795.026 119.994 790.665 123.792 787.916L282.2 673.28V673.28C323.072 645.153 361.061 612.097 405.363 589.383C450.663 567.573 501.784 566.715 548.207 548.513C549.191 535.393 576.774 532.044 575.903 534.07C605.006 516.504 619.988 495.603 624.609 476.394C629.229 457.185 623.487 439.667 646.157 433.696ZM1037.89 845.266C1086.87 771.565 1133.56 853.109 1153.95 902.256C1178.04 969.515 1128.15 1052.25 1095.92 1110.23C1084.05 1126.33 1068.43 1160.3 1047.51 1162.76C994.785 1162.54 941.992 1158.83 889.24 1157.73C855.178 1149.28 902.968 1098.09 935.98 1116.79C945.982 1120.53 950.979 1131.88 960.732 1135.53C964.286 1136.28 964.531 1134.7 965.976 1131.16L966.181 1130.67C968.758 1124.54 971.257 1118.39 973.795 1112.25C995.272 1059.36 1017.98 1006.93 1040.55 954.533C1045.38 943.156 1038.61 933.783 1029.82 927.011C1023.09 921.47 994.143 907.94 1021.41 913.895C1010.91 889.522 1023.53 864.783 1037.89 845.266ZM916.278 744.376C920.994 743.787 927.051 748.54 927.777 753.144C933.793 791.31 927.091 829.043 919.056 866.376L917.576 873.213C914.613 886.829 911.301 900.714 903.909 912.649C896.366 924.829 884.955 934.009 871.855 939.589C829.83 956.336 777.566 939.775 746.651 908.465C726.873 881.375 744.26 847.343 747.579 817.652C744.442 809.651 743.286 800.397 741.471 792.148L741.25 791.163L734.201 760.391C732.647 753.604 737.593 744.316 745.721 745.248C802.393 751.748 859.675 751.456 916.278 744.376Z" fill="#D08B5B"/>
<rect x="730.998" y="746" width="199" height="200" fill="#FDEA6B"/>
<path fill-rule="evenodd" clip-rule="evenodd" d="M1114.2 835.624C1114.03 834.865 1114.94 834.284 1115.53 834.855C1125.5 844.464 1132.54 856.744 1140.27 868.124C1147.63 878.964 1155.64 889.384 1161.13 901.345C1166.23 912.464 1169.52 923.744 1170.5 935.964C1171.48 948.095 1170.21 960.255 1168.07 972.204C1163.86 995.744 1154.86 1018.03 1144.98 1039.68C1135.37 1060.73 1124.52 1081.18 1113.06 1101.26L1108.95 1108.42C1103.94 1117.15 1098.87 1125.86 1093.45 1134.31C1086.7 1144.83 1080.54 1155.69 1071.64 1164.47C1065.32 1170.72 1053.41 1164.47 1056.29 1155.54C1057.54 1151.65 1058.52 1147.99 1060.46 1144.38C1061.93 1141.63 1063.59 1138.96 1065.15 1136.25C1068.27 1130.83 1071.36 1125.39 1074.48 1119.97C1081.03 1108.58 1087.93 1097.4 1094.42 1085.97C1105.68 1066.15 1116.31 1045.96 1125.71 1025.18L1126.81 1022.73C1135.46 1003.49 1143.66 983.559 1147.46 962.744C1151.46 940.815 1147.88 920.145 1140.09 899.534C1136.06 888.874 1131.53 878.454 1126.82 868.074L1125.91 866.091C1121.36 856.184 1116.54 846.33 1114.2 835.624ZM630.047 456.303C630.137 455.914 630.797 455.884 630.857 456.303C633.657 474.925 627.427 494.624 617.277 510.114C611.737 518.574 604.907 526.214 596.857 532.354L596.23 532.828C588.007 538.975 576.895 544.912 566.687 540.925C566.367 540.803 566.067 540.664 565.787 540.505C566.937 542.284 567.997 544.154 569.077 546.024C572.287 551.594 575.167 557.364 578.297 562.984C583.897 573.034 590.567 582.024 598.997 589.894C632.707 621.358 680.039 628.836 724.491 628.478L727.631 628.448C747.157 628.31 772.693 629.307 787.767 615.175C795.867 607.585 800.327 596.794 804.357 586.664C808.317 576.734 811.027 566.484 814.317 556.384C807.447 551.675 801.147 545.925 796.197 539.204C791.037 532.204 787.137 524.324 784.887 515.914L784.555 514.658C782.815 507.951 781.066 499.08 783.867 492.744C784.187 492.014 785.387 492.064 785.727 492.744C787.237 495.774 787.527 499.194 788.457 502.434C789.537 506.204 790.757 509.954 792.367 513.524C795.477 520.444 799.587 527.024 804.517 532.784C808.587 537.553 812.997 541.934 818.037 545.614C821.007 540.484 827.897 539.794 833.667 541.484C841.401 543.744 849.03 546.645 856.488 549.709L857.977 550.324C865.347 553.384 873.677 556.194 880.577 560.364C884.767 562.364 888.787 564.374 892.567 566.154C911.402 575.002 929.958 584.39 948.43 593.961L952.387 596.014C960.127 600.044 967.797 604.114 974.527 609.734C981.377 615.454 986.697 623.274 991.697 630.604C1003.13 647.364 1013.9 664.604 1025.2 681.454C1048.02 715.454 1070.84 749.454 1093.79 783.374C1099.34 791.585 1105.6 799.594 1110.58 808.154C1115.35 816.335 1115.22 824.734 1114.29 833.864L1114.11 835.541C1112.33 852.289 1109.26 868.373 1099.87 882.734C1085.08 905.314 1061.78 919.374 1037.13 929.053C1040.14 931.294 1042.97 933.714 1046.56 935.255C1052.08 937.614 1057.97 938.835 1063.94 939.324C1070.31 939.835 1077.49 938.244 1082.65 942.574C1084.72 944.303 1084.78 948.464 1082.65 950.194C1077.69 954.243 1071.27 953.083 1065.23 952.404L1064.87 952.364C1059.26 951.744 1053.73 950.704 1048.46 948.644C1047.16 948.133 1045.87 947.564 1044.62 946.934C1044.66 947.044 1044.68 947.175 1044.66 947.314C1043.76 954.204 1041.81 960.718 1039.74 967.302L1038.44 971.474C1035.78 979.994 1033.1 988.494 1030.34 996.994C1025.08 1013.18 1019.36 1029.2 1013.62 1045.21L1008.67 1059.03C1003.58 1073.2 998.423 1087.35 992.727 1101.28C989.207 1109.88 985.667 1118.48 982.137 1127.07C978.687 1135.46 975.817 1144.52 971.537 1152.51C968.017 1159.09 958.417 1154.38 959.957 1147.62C961.977 1138.76 965.787 1129.95 968.697 1121.32C971.657 1112.56 974.557 1103.79 977.567 1095.05C982.802 1079.87 988.6 1064.89 994.427 1049.92L1000.2 1035.08C1005.87 1020.55 1011.6 1006.02 1017.73 991.675L1018.4 990.103C1024.76 975.094 1031.33 958.216 1042.9 946.585C1043.05 946.425 1043.26 946.344 1043.47 946.324C1040.63 944.784 1037.97 942.914 1035.63 940.704L1035.51 940.589C1034.59 939.61 1030.77 934.784 1029.54 931.894C1027.94 932.464 1026.34 933.014 1024.74 933.553C1021.95 934.494 1019.64 933.814 1018.01 932.324L1014.9 934.245C1011.58 936.272 1008.01 938.196 1004.35 938.294C999.727 938.414 996.097 935.864 993.627 932.104C991.407 928.744 990.087 925.114 987.277 922.104C984.514 919.146 981.316 916.649 978.048 914.265L974.196 911.462C967.132 906.306 960.284 901.095 954.597 894.284C951.737 890.844 947.907 886.764 946.167 882.633C945.827 881.835 945.617 881.085 945.577 880.354C945.197 882.934 944.807 885.524 944.417 888.104C938.957 924.414 934.547 960.974 933.137 997.694C932.447 1015.8 932.137 1033.93 932.947 1052.05C933.347 1061.1 934.007 1070.14 934.917 1079.16C935.367 1083.68 935.837 1088.19 936.387 1092.69L936.514 1093.74C936.673 1095.12 936.777 1096.45 936.657 1097.71C941.057 1099.88 943.587 1105.36 945.347 1109.64C946.687 1112.9 945.647 1116.07 943.487 1118.36C946.067 1120.71 948.367 1123.47 950.297 1126.63C950.687 1127.27 949.847 1127.77 949.347 1127.37C946.177 1124.85 942.767 1122.78 939.207 1121.19C937.337 1121.9 935.297 1122.09 933.417 1121.57C931.377 1121.01 929.617 1119.65 928.347 1117.93C918.237 1116.26 907.727 1118.29 898.627 1124.62C896.737 1125.94 895.027 1127.43 893.397 1129.05C893.117 1129.34 892.827 1129.69 892.537 1130.04L894.522 1130.81C895.345 1131.12 896.02 1131.36 896.277 1131.41C898.01 1131.77 899.77 1131.96 901.53 1132.11L904.167 1132.32C914.297 1133.16 924.397 1133.44 933.817 1137.68C935.797 1138.57 935.107 1141.62 933.237 1142.13C926.358 1144 919.532 1143.86 912.53 1143.36L911.027 1143.24C904.517 1142.74 897.527 1142.77 891.177 1140.97C892.697 1145.13 890.627 1150.56 884.277 1151.41C865.207 1153.95 846.017 1152.76 826.927 1151.07C807.647 1149.37 788.377 1147.76 769.047 1146.76C706.521 1143.47 643.898 1144.1 581.316 1144.99L545.95 1145.5C517.747 1145.9 489.538 1146.21 461.335 1145.99L448.134 1145.87C442.555 1145.82 436.973 1145.75 431.4 1145.58L428.057 1145.47C421.417 1145.23 412.627 1146.23 406.857 1142.3C402.097 1139.06 401.037 1133.12 403.907 1128.34C404.737 1126.95 405.877 1125.72 407.067 1124.52C409.507 1103.68 410.877 1082.72 412.277 1061.78C417.137 988.505 414.297 915.604 403.087 843.064C373.007 852.255 343.387 863.784 314.527 876.154C298.917 882.844 283.387 889.784 268.037 897.064C254.027 903.714 239.957 912.024 224.987 916.344C223.626 917.552 221.723 918.127 220.036 917.591L219.817 917.514H219.807C218.267 917.874 216.557 917.654 214.877 916.644C214.537 916.438 214.197 916.231 213.857 916.019L213.347 915.694C208.077 912.374 202.777 908.284 199.047 903.284C194.517 907.484 189.647 911.335 184.857 915.234C179.657 919.474 174.477 923.734 169.337 928.034C167.297 929.744 165.047 931.374 163.247 933.344L162.986 933.634C162.944 933.681 162.904 933.727 162.867 933.774C170.657 938.814 177.477 946.464 183.587 953.114C190.148 960.251 196.482 967.616 202.765 975.009L208.846 982.18C251.853 1032.96 295.299 1085.59 350.977 1122.91C359.777 1128.81 351.387 1143.18 342.647 1137.15C326.107 1125.76 310.457 1113.11 295.427 1099.8C269.087 1076.49 245.387 1050.34 223.197 1023.09C211.967 1009.3 201.067 995.175 190.387 980.954L186.762 976.131C181.932 969.697 177.127 963.244 172.527 956.644L171.565 955.261C167.53 949.439 163.239 942.898 160.637 936.194C159.637 937.204 158.507 938.053 156.857 938.694C154.037 939.794 150.577 937.484 149.887 934.734C148.207 928.064 154.007 924.094 158.727 920.553C164.457 916.274 170.297 912.144 176.147 908.034L178.237 906.557C185.552 901.369 192.906 896.044 200.877 891.944C201.117 891.624 201.407 891.324 201.737 891.064C202.117 890.764 202.487 890.474 202.867 890.184C193.347 874.744 182.907 859.904 171.257 845.883C162.497 835.335 153.197 825.264 143.357 815.724L138.937 811.444C132.25 804.987 125.298 798.437 117.877 792.824L115.554 795.458C112.452 798.967 109.319 802.448 106.007 805.744C99.487 812.224 93.057 818.835 86.657 825.444C76.0284 836.441 65.7599 847.777 55.5238 859.128L50.407 864.803C39.747 876.633 28.327 888.244 18.637 900.883L18.1531 901.523C13.9226 907.197 10.9112 913.476 12.877 920.684C14.7738 927.633 19.2835 933.794 23.1705 939.795L23.557 940.394C39.427 965.114 56.427 989.204 74.637 1012.26C111.107 1058.43 152.707 1102.18 202.347 1134.28C209.227 1138.73 202.797 1149.79 195.907 1145.29C166.917 1126.34 140.287 1103.59 115.787 1079.14C93.297 1056.71 72.917 1032.01 53.817 1006.66C44.507 994.294 35.587 981.664 27.037 968.755C18.747 956.224 9.15702 943.335 3.14702 929.514C-0.00273855 922.244 -1.16298 914.374 1.41702 906.714C3.78308 899.674 8.4623 893.829 13.3302 888.329L13.787 887.814C24.977 875.244 36.367 862.824 47.857 850.524C59.387 838.184 71.447 826.284 83.757 814.734C93.427 805.644 103.507 797.633 114.287 790.214C113.317 789.524 112.347 788.864 111.357 788.224C108.347 786.264 107.587 782.074 110.227 779.414C117.437 772.133 125.747 765.803 133.567 759.175C140.917 752.944 148.267 746.704 155.617 740.464C170.577 727.784 185.537 715.094 200.497 702.404C227.367 679.614 254.087 656.664 280.867 633.774C292.034 624.233 303.305 614.809 314.546 605.359L334.52 588.55V588.55L344.288 580.349C349.294 576.157 354.405 572.011 360.097 568.814C373.489 561.292 389.59 558.037 404.345 554.051L405.327 553.784C421.877 549.255 438.517 544.994 455.247 541.194C471.997 537.394 488.817 533.934 505.707 530.803C520.887 527.984 536.427 525.564 551.907 525.204C555.747 523.744 560.567 523.234 564.347 524.794C565.907 525.444 567.537 526.394 568.987 527.594C576.557 524.934 584.027 523.664 591.097 519.164C598.157 514.675 604.407 508.774 609.667 502.274C620.537 488.814 626.227 472.914 630.047 456.303ZM804.057 912.094C798.057 911.675 792.657 914.154 787.297 916.794C790.317 918.104 793.337 919.404 796.357 920.694L816.457 929.274V929.274C823.097 932.104 830.127 934.564 836.437 938.053C836.887 938.303 837.247 938.604 837.517 938.954C844.077 934.755 851.017 931.005 857.667 927.014C859.187 926.104 860.717 925.194 862.247 924.284C854.327 926.934 846.207 928.264 837.607 925.774C826.137 922.464 816.177 912.944 804.057 912.094ZM820.497 891.974L819.419 891.242C813.599 887.25 806.655 882.118 799.587 885.704C796.257 887.394 793.527 890.124 790.247 891.944C786.947 893.784 783.317 895.194 779.637 896.044C773.527 897.454 766.527 897.664 759.957 896.303L760.057 905.184V905.184C765.027 907.234 769.967 909.335 774.907 911.454C778.114 910.358 781.201 909.041 784.447 907.596L786.637 906.614C792.887 903.803 799.197 901.925 806.107 902.814C819.117 904.484 828.947 914.154 841.387 917.374C856.637 921.335 870.397 909.954 884.807 907.144C887.183 906.676 889.632 906.403 892.066 906.36L892.877 906.354L893.237 906.144C896.337 904.324 900.977 902.585 903.137 899.524C905.487 896.204 905.687 890.644 906.457 886.744C906.537 886.354 906.617 885.954 906.687 885.564C905.327 885.564 903.947 885.633 902.547 885.894C898.147 886.704 894.007 888.264 889.907 890.005C882.157 893.294 874.577 897.044 866.417 899.234C858.427 901.383 850.077 902.404 841.847 901.214C833.817 900.053 827.147 896.434 820.497 891.974ZM821.749 860.753L820.544 859.977C817.366 857.949 813.721 855.849 809.827 856.594C806.347 857.264 803.357 860.034 800.327 861.744C793.677 865.494 786.217 867.544 778.607 868.064C772.277 868.494 765.707 867.724 759.617 865.844L759.827 885.505V885.505C762.057 886.214 764.367 886.724 766.797 886.904C774.177 887.454 781.377 885.684 787.567 881.614L790.698 879.535C796.057 876.015 801.085 873.22 808.177 874.505C815.197 875.784 821.087 880.284 826.827 884.204L827.768 884.836C834.36 889.188 841.042 891.998 849.127 892.064C857.857 892.133 866.487 889.704 874.617 886.714C882.687 883.755 890.357 880.204 898.987 879.114C901.627 878.784 904.847 878.684 907.877 879.204C908.277 876.974 908.657 874.755 909.017 872.524C909.797 867.734 910.467 862.954 911.047 858.164C895.737 854.044 881.597 867.374 867.377 871.484C859.127 873.864 850.147 873.835 841.897 871.534C834.263 869.404 828.262 864.982 821.749 860.753ZM821.787 827.644C818.517 827.014 815.287 828.524 812.507 830.074C805.417 834.005 799.297 839.474 791.267 841.544C780.937 844.204 769.637 841.914 759.377 837.564C759.417 843.633 759.467 849.704 759.517 855.774C761.447 856.505 763.427 857.094 765.447 857.564C772.627 859.204 780.237 858.984 787.307 856.914C794.517 854.803 800.047 849.104 807.277 847.324C814.67 845.498 821.639 849.051 827.597 853.09L829.39 854.313C836.201 858.935 842.806 862.95 851.327 863.734C860.337 864.564 868.167 861.744 876.217 858.005L878.091 857.138C888.283 852.457 901.513 847.127 911.687 852.454C912.487 844.894 913.067 837.335 913.457 829.764C912.057 829.244 910.607 828.864 908.937 828.854C904.947 828.835 900.757 830.094 897.037 831.404C888.907 834.274 881.337 838.553 873.287 841.624C865.657 844.544 857.207 846.064 849.067 844.755C841.527 843.544 835.867 839.604 830.657 834.204L829.9 833.406C827.615 830.975 825.171 828.301 821.787 827.644ZM827.757 799.574C823.987 797.585 819.397 795.734 815.037 796.314C810.877 796.863 808.105 799.685 805.543 802.702L804.156 804.353C799.573 809.775 795.062 814.333 787.997 816.564C780.677 818.864 772.917 817.964 766.107 814.594C763.687 813.394 761.437 811.904 759.177 810.434L759.297 826.383V826.383C763.817 828.633 768.417 830.664 773.467 831.894C782.787 834.164 790.707 832.484 798.677 827.344L799.514 826.8C805.517 822.858 811.672 818.164 819.087 817.724C826.323 817.291 831.754 821.303 836.519 826.213L837.077 826.794C843.087 833.133 849.157 836.224 858.097 835.494C866.764 834.786 874.876 830.959 882.816 827.662L883.537 827.364C890.797 824.383 899.167 821.314 907.137 822.454C909.047 822.724 911.517 823.314 913.717 824.344C914.037 816.883 914.187 809.414 914.217 801.934C909.687 798.005 902.637 797.354 896.967 798.964C888.087 801.484 880.817 807.984 872.337 811.514C864.817 814.644 856.977 815.344 849.307 812.383C841.387 809.324 835.177 803.494 827.757 799.574ZM913.717 768.154C900.447 768.614 887.467 777.244 874.797 780.534C860.644 784.207 849.092 779.2 836.484 773.642L834.857 772.925C828.387 770.085 821.437 767.534 814.267 768.694C807.277 769.835 801.097 773.704 795.087 777.204L793.935 777.868C782.987 784.1 771.839 788.367 759.057 787.303C759.127 791.314 759.097 795.314 759.107 799.234C761.207 800.434 763.227 801.794 765.147 803.034L765.836 803.471C771.93 807.281 778.211 809.786 785.477 807.434C792.497 805.154 795.797 799.044 800.617 794.014C805.047 789.394 810.827 786.585 817.307 786.854C824.277 787.133 830.867 790.204 836.627 793.954C842.387 797.704 847.957 802.553 854.697 804.434C869.817 808.633 882.767 792.644 897.067 790.154C903.067 789.104 909.687 790.434 914.217 794.053C914.167 785.434 913.977 776.794 913.717 768.154ZM799.497 764.534C797.627 764.604 795.757 764.684 793.887 764.764C786.967 765.064 780.047 765.404 773.127 765.794C768.337 766.053 762.447 767.524 757.747 766.064C757.627 766.544 757.467 767.005 757.257 767.454C757.967 770.994 758.407 774.654 758.677 778.354C763.017 778.824 767.427 778.664 771.707 777.774C781.977 775.644 790.317 769.164 799.497 764.534ZM913.517 761.564C888.248 763.305 862.784 762.706 837.474 763.253L834.437 763.324C834.317 763.324 834.197 763.335 834.077 763.335C836.98 764.46 839.86 765.748 842.73 767.06L845.597 768.374C852.377 771.494 859.277 774.044 866.867 773.494C874.997 772.904 882.657 769.585 890.257 766.904C897.507 764.344 905.857 762.624 913.587 763.744C913.567 763.014 913.547 762.294 913.517 761.564Z" fill="black"/>
<path fill-rule="evenodd" clip-rule="evenodd" d="M854.581 283.192C854.183 260.79 853.743 237.94 850.413 215.756C847.157 194.068 838.2 174.464 822.808 158.715C790.115 125.262 742.725 117.091 698.613 109.603L623.194 96.8001C600.185 92.8951 575.638 86.6531 552.391 92.1911C540.936 94.9201 531.208 101.26 522.317 108.761C513.747 115.991 504.533 123.755 498.726 133.482C492.909 143.223 490.908 154.61 489.017 165.627C486.884 178.048 485.227 190.566 484.05 203.114C481.691 228.254 481.369 253.583 483.08 278.775C483.909 290.994 485.228 303.178 486.912 315.308C487.747 321.323 488.691 327.323 489.757 333.302C490.071 335.065 490.31 337.017 490.632 338.989C488.253 345.755 486.901 352.762 487.01 359.739C487.331 380.291 504.678 393.23 522.166 400.177C532.306 404.205 542.907 406.942 552.87 411.442C563.351 416.175 570.485 423.848 577.651 432.601C591.318 449.295 606.741 464.299 624.352 476.817C661.69 503.358 708.982 515.911 754.286 506.383C765.156 504.097 776.122 500.547 785.893 495.198C796.209 489.551 803.966 481.368 810.48 471.693C822.575 453.732 831.249 433.507 837.811 412.926C844.504 391.932 849.255 370.9 851.846 349.009C854.428 327.189 854.972 305.147 854.581 283.192V283.192Z" fill="#D08B5B"/>
<path fill-rule="evenodd" clip-rule="evenodd" d="M613.911 18.7638C645.121 14.4708 688.198 28.4238 703.741 56.5578C777.947 39.0638 871.54 38.4908 932.701 96.7278C996.52 165.81 916.36 256.895 863.207 277.431C867.077 296.238 861.043 416.723 818.348 470.466C784.464 516.002 705.557 537.017 669.044 482.628L668.759 482.179C664.848 475.898 668.217 476.099 672.232 480.772C707.986 512.214 756.599 512.751 794.06 479.569C864.268 418.919 857.029 270.209 823.621 184.178C728.491 173.73 626.637 202.563 560.932 274.172L565.375 300.92C566.132 305.477 566.992 310.03 567.648 314.603C568.068 317.533 568.115 320.447 566.085 322.819C559.382 330.649 548.085 318.883 538.79 314.203C536.046 313.817 533.297 313.668 530.601 313.858C485.943 319.61 494.742 406.24 543.824 391.055C547.948 388.486 551.491 389.27 553.091 392.998C564.79 403.714 572.504 422.826 591.941 441.234C598.799 448.139 605.04 453.916 612.754 459.455C617.285 464.037 630.957 468.709 626.623 476.55C618.427 494.392 570.096 438.347 561.551 422.848C534.778 433.42 505.108 429.829 477.363 427.245C330.993 419.635 350.533 265.345 470.509 167.934C493.093 151.308 518.01 137.745 543.911 127.308C547.447 125.883 545.902 120.077 542.316 121.522C525.178 128.429 508.471 136.65 492.545 146.165L492.521 140.476C492.498 130.895 492.648 120.92 494.312 112.166C495.144 106.1 496.543 99.6208 498.697 94.7468C501.36 79.8038 543.075 28.5118 613.911 18.7638ZM528.648 333.746C530.908 331.599 535.127 334.159 537.139 334.095C542.284 334.799 547.172 336.972 550.984 339.654C553.501 341.064 555.265 342.388 556.739 343.606L556.779 343.595C556.768 343.595 556.754 343.606 556.742 343.609L556.881 343.703C559.027 345.228 566.884 353.817 561.92 351.507C561.55 351.026 561.171 350.564 560.789 350.111C560.748 350.173 560.691 350.234 560.623 350.293L560.902 350.707C565.121 357.054 557.837 350.367 556.716 348.591C556.663 348.634 556.603 348.663 556.544 348.694L558.003 350.471C558.207 350.723 558.368 350.924 558.501 351.094L558.809 351.392C563.687 356.186 563.839 360.501 558.172 353.412C558.395 353.746 558.574 354.1 558.599 354.414L558.935 354.843C563.384 360.576 559.765 358.54 557.554 356.091L557.369 355.881L557.407 355.938C559.464 359.107 555.383 356.883 554.661 355.188L554.631 355.111C553.845 354.47 553.361 353.751 553.196 353.569L553.165 353.538C549.339 349.618 543.793 346.301 539.082 344.794C538.399 344.664 537.708 344.56 537.01 344.486C534.177 343.854 531.313 343.421 528.419 343.187C528.065 343.145 527.706 342.885 527.438 342.549C523.062 342.402 524.413 340.608 526.228 340.275L526.26 340.27L525.9 340.239C523.091 339.965 521.173 338.957 524.013 338.339L524.373 338.267C524.329 338.198 524.29 338.129 524.252 338.06C521.82 337.793 523.407 335.429 524.757 336.001C524.189 334.144 526.785 335.071 527.109 334.795C527.356 334.521 527.663 334.279 527.84 334.266C528.622 333.714 528.243 333.764 528.648 333.746ZM543.528 303.681L542.958 304.014C542.497 304.283 542.023 304.462 541.547 304.567C542.219 304.853 542.883 305.162 543.54 305.492C543.53 305.088 543.522 304.686 543.522 304.283L543.528 303.681Z" fill="black"/>
<path fill-rule="evenodd" clip-rule="evenodd" d="M632.597 365.617C636.075 357.766 651.733 345.574 651.733 345.574C651.733 345.574 656.486 372.551 652.8 380.87C649.762 387.729 638.821 400.107 630.797 396.626C622.774 393.146 626.88 378.523 632.597 365.617Z" fill="white"/>
<path fill-rule="evenodd" clip-rule="evenodd" d="M827.249 358.513C824.39 351.878 811.519 341.574 811.519 341.574C811.519 341.574 807.612 364.373 810.642 371.404C813.139 377.201 822.133 387.661 828.728 384.72C835.323 381.779 831.949 369.42 827.249 358.513Z" fill="white"/>
<path fill-rule="evenodd" clip-rule="evenodd" d="M693.953 397.231H781.79L787.045 411.747C787.045 411.747 721.499 426.959 698.483 417.167L693.953 397.231Z" fill="white"/>
<path d="M745.364 393.518C757.754 393.458 776.314 393.097 788.694 393.827C792.264 394.037 794.024 399.138 794.274 401.558C796.644 424.048 778.684 441.988 758.854 448.938C740.454 455.388 716.154 456.608 699.744 444.558C692.614 439.328 687.214 432.077 683.694 424.007C681.794 419.657 680.405 415.147 679.635 410.467C679.045 406.897 677.924 402.087 679.234 398.577C681.034 393.787 686.045 394.127 690.335 394.047C696.255 393.927 702.175 393.776 708.085 393.707C720.515 393.566 732.944 393.567 745.364 393.518ZM779.734 400.067C774.163 400.668 712.664 401.107 703.164 401.317C701.734 401.348 700.234 401.317 698.715 401.277C697.662 404.535 700.395 411.242 703.335 412.407C706.277 413.571 731.135 414.714 745.814 414.044C755.824 413.594 781.79 407.526 781.79 404.923C781.79 402.319 780.684 399.968 779.734 400.067ZM655.344 342.376C657.257 341.364 659.046 342.674 659.294 344.642C659.793 348.593 657.706 352.723 657.601 356.792C657.489 361.143 657.961 365.49 657.815 369.841C657.56 377.44 655.291 385.069 650.901 391.326C645.661 398.795 631.84 406.953 625.244 396.141C620.501 388.367 624.229 377.029 627.681 369.528C630.388 363.648 634.325 358.211 638.735 353.489C641.67 350.344 647.839 343.263 652.581 343.975C652.763 344.002 652.844 344.221 652.809 344.379C652.777 344.518 652.725 344.641 652.682 344.773C653.367 343.796 654.231 342.964 655.344 342.376ZM651.733 346.459C650.892 347.462 649.749 348.264 648.781 349.244C646.722 351.33 644.676 353.425 642.83 355.706C639.465 359.863 636.687 364.508 634.484 369.376C631.857 375.178 627.531 385.125 630.616 391.575C632.27 395.032 636.525 394.413 639.395 392.73C644.757 389.587 647.921 382.88 649.423 377.112C651.098 370.678 650.119 364.149 650.15 357.6C650.165 354.255 650.226 349.841 651.733 346.459ZM807.999 332.183C808.091 329.71 810.572 328.396 812.725 329.471C816.413 331.314 817.97 335.058 820.007 338.491C822.369 342.472 824.732 346.454 827.094 350.435C831.262 357.46 836.952 364.957 839.052 372.946C842.156 384.754 831.91 393.42 820.553 390.884C808.702 388.238 804.302 374.456 804.552 363.691C804.683 358.056 805.997 352.333 807.107 346.83C807.76 343.592 807.985 340.074 808.823 336.827C808.267 335.292 807.941 333.738 807.999 332.183ZM747.814 342.367C745.836 340.947 747.406 336.243 751.634 336.97C790.03 343.567 770.136 409.708 721.112 373.412C715.276 368.704 722.343 358.334 728.634 362.366C735.418 367.569 749.186 379.073 758.748 369.039C766.871 357.66 755.366 346.958 747.814 342.367ZM813.753 345.525C813.279 348.687 812.569 351.729 812.24 353.975C810.943 362.816 810.025 374.298 817.333 380.986C820.426 383.817 825.799 384.866 829.393 382.195C834.65 378.289 829.132 370.777 826.679 366.765C823.055 360.839 819.485 354.883 815.94 348.91C815.298 347.829 814.54 346.695 813.753 345.525ZM673.122 299.597C685.677 297.567 699.26 305.836 703.643 317.755C704.749 320.762 702.912 324.487 700.279 326.025C697.241 327.799 693.994 326.938 691.406 324.879C687.928 322.113 686.274 317.67 682.454 315.157C679.222 313.029 674.89 312.917 671.174 313.532C662.436 314.978 655.568 320.616 647.587 323.91C646.468 324.372 645.813 322.937 646.189 322.092C651.023 311.228 661.116 301.538 673.122 299.597ZM794.841 299.106C804.876 298.245 816.833 302.592 820.007 312.918C820.082 313.166 819.821 313.458 819.562 313.362C813.49 311.111 806.775 309.743 800.284 310.888C796.104 311.626 787.854 314.585 787.538 319.38C787.049 326.774 778.471 328.593 774.292 322.967C770.228 317.495 773.725 310.011 778.215 306.056C782.923 301.91 788.631 299.639 794.841 299.106ZM681.465 254.502C687.272 253.498 694.494 252.532 698.602 257.201C700.781 259.677 701.531 264.28 698.602 266.65C693.451 270.819 687.755 269.204 681.581 269.557C676.493 269.849 671.603 270.69 666.702 272.091C655.95 275.164 647.189 280.775 638.006 286.935C636.801 287.743 635.571 286.201 636.145 285.074C641.446 274.691 651.72 266.162 662.01 260.963C667.502 258.188 673.512 255.886 679.588 254.83L681.465 254.502ZM775.311 250.591C776.804 249.984 778.503 249.841 780.192 250.179L781.63 250.474C797.267 253.743 817.583 260.272 824.988 275.631C825.27 277.803 824.972 278.268 824.729 278.573L824.649 278.673C824.45 278.933 824.29 279.292 823.349 279.587C823.087 279.525 822.823 279.459 822.557 279.389C819.162 278.499 816.477 277.274 813.877 276.002L811.058 274.614C807.788 273.01 804.488 271.464 800.991 270.324C793.529 267.89 785.854 266.176 778.059 265.26C776.37 265.062 774.743 264.491 773.46 263.514C772.242 262.586 771.311 261.303 770.887 259.596C770.337 257.387 770.495 255.714 771.681 253.721C772.572 252.224 773.847 251.187 775.311 250.591Z" fill="black"/>
</svg>
