<svg width="818" height="1200" viewBox="0 0 818 1200" fill="none" xmlns="http://www.w3.org/2000/svg">
<path fill-rule="evenodd" clip-rule="evenodd" d="M48 817.888L764.472 874.767L765.222 879.636C777.228 957.826 783.292 1010.87 783.415 1038.77L783.417 1039.63C783.417 1067.3 791.91 1111.3 808.896 1171.63L809.947 1175.35L47 1176.68L38 995.066L48 817.888ZM472.17 428.183C501.302 429.621 530.662 442.11 532.93 450.092C537.98 467.869 546.102 543.966 572.812 555.657C599.521 567.348 656.543 556.689 672.846 584.609C689.149 612.529 742.69 726.341 742.69 752.861C742.69 770.54 568.208 776.677 219.244 771.271C223.698 628.87 242.271 554.014 274.961 546.704L277.88 546.059C325.155 535.732 353.41 535.399 369.537 518.751C385.993 501.764 388.98 472.606 395.807 450.092C399.568 437.687 436.421 426.419 472.17 428.183Z" fill="#D08B5B"/>
<path fill-rule="evenodd" clip-rule="evenodd" d="M536.057 472.689C536.167 472.604 536.278 472.579 536.397 472.639C538.667 473.729 539.137 475.909 539.917 478.179C541.057 481.499 542.377 484.739 543.597 488.029C546.028 494.629 548.347 501.219 551.057 507.709C553.837 514.389 556.717 520.949 560.017 527.399C561.607 530.519 563.317 533.579 565.057 536.619C566.257 538.729 567.377 541.629 568.957 543.609C569.077 542.979 569.247 542.379 569.447 541.819C569.238 541.919 569.037 542.029 568.847 542.149C568.447 542.399 567.967 541.899 568.207 541.509C569.067 540.089 570.187 539.129 571.467 538.479C575.007 534.549 653.036 553.304 674.367 574.369C713 612.52 739.077 659.689 756.227 709.869C765.697 737.559 774.417 765.519 783.427 793.359C792.947 822.799 802.887 852.109 812.427 881.529C814.517 887.999 809.957 893.879 804.197 896.009C793.467 899.969 782.657 903.699 771.757 907.149C777.047 927.459 780.747 948.199 783.407 968.999C788.897 1011.89 789.587 1055.65 798.238 1098.09C800.224 1107.83 802.737 1117.43 805.392 1127.01L806.007 1129.22C807.587 1134.84 809.028 1140.51 810.967 1146.01C812.637 1150.74 814.797 1155.51 815.967 1160.39C817.337 1166.13 815.317 1172.4 809.947 1175.35C805.637 1177.72 799.467 1176.74 796.867 1172.29C796.337 1171.38 796.017 1170.39 795.887 1169.39C795.497 1168.56 795.137 1167.71 794.817 1166.84C794.692 1166.5 794.582 1166.16 794.477 1165.81L794.167 1164.77C793.407 1162.29 792.707 1159.79 792.007 1157.29C790.867 1153.28 789.719 1149.28 788.451 1145.3L787.807 1143.32C784.667 1133.76 781.857 1124.12 779.407 1114.36C770.639 1079.36 768.779 1043.13 766.372 1007.26L766.247 1005.41C764.067 973.269 762.767 941.199 765.437 909.129L765.072 909.247V909.247L764.707 909.359C761.238 910.419 757.757 911.459 754.267 912.469C754.157 912.509 754.057 912.549 753.947 912.579C751.713 913.27 749.417 913.927 747.082 914.538L745.677 914.899L744.687 915.169L743.644 915.465C740.337 916.424 736.966 917.527 733.537 917.419C727.857 918.329 722.077 918.879 716.397 918.899C718.147 947.509 720.167 976.099 722.577 1004.66C724.997 1033.37 728.207 1061.97 731.537 1090.57C733.177 1104.7 734.937 1118.8 736.877 1132.88C737.857 1140.02 738.877 1147.12 740.177 1154.2C741.517 1161.44 743.887 1169.18 742.457 1176.5C742.427 1176.49 742.397 1176.48 742.367 1176.48C741.887 1178.6 740.607 1180.5 738.377 1181.81C734.287 1184.2 728.567 1182.8 726.217 1178.62C726.017 1178.27 725.827 1177.91 725.647 1177.54C723.238 1178.57 720.597 1178.97 717.357 1179L673.417 1179.44V1179.44C653.447 1179.64 633.477 1179.85 613.497 1180.14C550.768 1181.06 488.039 1182.13 425.31 1182.89L401.787 1183.16C366.507 1183.53 331.207 1184.26 295.927 1184.25C278.278 1184.25 260.647 1184.19 242.997 1183.76C234.447 1183.55 225.917 1183.22 217.377 1182.87L215.869 1182.8C209.051 1182.46 201.813 1181.83 195.147 1183.36C193.307 1186.94 188.607 1187.68 186.147 1184.02C180.525 1175.64 178.991 1163.96 177.952 1153.72L177.587 1150.04C176.437 1138.57 175.427 1127.1 174.677 1115.61C172.017 1074.9 171.047 1034.15 172.267 993.359C172.887 972.569 174.797 951.899 177.057 931.229C177.767 924.779 178.507 918.339 179.307 911.909L179.32 909.622C179.322 908.891 179.317 908.194 179.297 907.539L179.097 901.334C178.932 896.163 178.778 890.988 178.714 885.814L178.687 882.709L178.657 876.929C173.717 876.459 168.447 874.819 164.187 874.029C157.278 872.739 150.387 871.349 143.517 869.879C129.757 866.919 116.147 863.419 102.627 859.549L99.7512 858.723C87.2759 855.128 74.6288 851.295 62.8266 845.919C58.2066 843.809 53.5966 841.429 49.5466 838.309C49.3066 841.589 48.9366 844.859 48.7166 848.109C48.2776 854.539 47.7566 860.949 47.3266 867.379L46.9154 873.496C46.24 883.69 45.6316 893.874 45.3566 904.099C44.1366 948.699 43.9266 993.489 46.2866 1038.06C47.4566 1060.37 49.1266 1082.68 51.5366 1104.9C52.7166 1115.83 53.9666 1126.79 55.5066 1137.68C57.0966 1148.87 59.9666 1159.99 60.8466 1171.26C61.6866 1182.13 45.0666 1183.71 42.3366 1173.77C39.0677 1161.85 38.235 1148.99 36.5119 1136.74L36.3166 1135.38C34.4066 1122.36 32.8766 1109.29 31.5566 1096.2C26.9994 1051.05 25.8166 1005.67 28.2066 960.349C29.3429 938.643 32.0371 917.022 35.2979 895.546L35.6766 893.069C37.1611 883.451 38.5507 873.833 40.2318 864.257L40.8766 860.669C42.3866 852.439 43.5466 843.489 45.9966 835.259L45.2684 834.587C43.9068 833.319 42.4312 831.851 41.3566 830.269C37.6566 829.769 34.5066 827.109 34.8966 822.279C36.1666 806.409 41.9666 790.269 47.1366 775.289C52.3266 760.229 58.3466 745.449 65.1666 731.049C89.1566 680.439 123.707 634.489 165.957 597.679C188.367 578.149 212.927 560.829 240.067 548.499C253.447 542.409 267.287 537.699 281.787 535.159C288.967 533.899 296.217 532.919 303.517 532.709C309.439 529.212 316.471 530.683 322.205 534.517L322.517 534.729H322.528L323.997 535.019V535.019C324.357 535.089 324.347 535.659 323.997 535.739C323.977 535.739 323.947 535.749 323.927 535.759C324.867 536.499 325.757 537.289 326.587 538.139C329.327 540.939 329.317 544.319 327.907 547.049C336.297 554.829 341.597 564.819 347.147 574.889C353.097 585.669 360.887 594.989 370.367 602.849C405.117 631.669 456.227 644.419 499.767 630.809C531.787 620.809 559.137 593.739 566.697 561.149C564.907 561.789 562.967 561.889 561.127 561.229C552.486 558.148 549.192 548.705 545.887 540.809L545.727 540.429C542.497 532.779 539.787 525.009 537.647 516.989C535.488 508.889 534.217 500.339 533.687 491.979C533.482 488.673 533.572 485.368 533.743 482.062L533.895 479.329C534.012 476.852 533.975 474.322 536.057 472.689ZM395.467 450.399C395.587 450.099 396.057 449.939 396.237 450.299C403.886 466.079 398.867 487.699 391.636 502.749C384.067 518.489 372.667 530.429 359.157 540.759C357.297 542.179 355.386 543.579 353.447 544.949C342.176 552.909 332.136 531.449 345.147 527.349C358.707 520.459 369.727 508.179 377.386 495.279C381.527 488.309 385.197 481.049 388.007 473.429C390.807 465.829 392.487 457.919 395.467 450.399Z" fill="black"/>
<path fill-rule="evenodd" clip-rule="evenodd" d="M623.581 283.192C623.183 260.79 622.743 237.94 619.413 215.756C616.157 194.068 607.2 174.464 591.808 158.715C559.115 125.262 511.725 117.091 467.613 109.603L392.194 96.8001C369.185 92.8951 344.638 86.6531 321.391 92.1911C309.936 94.9201 300.208 101.26 291.317 108.761C282.747 115.991 273.533 123.755 267.726 133.482C261.909 143.223 259.908 154.61 258.017 165.627C255.884 178.048 254.227 190.566 253.05 203.114C250.691 228.254 250.369 253.583 252.08 278.775C252.909 290.994 254.228 303.178 255.912 315.308C256.747 321.323 257.691 327.323 258.757 333.302C259.071 335.065 259.31 337.017 259.632 338.989C257.253 345.755 255.901 352.762 256.01 359.739C256.331 380.291 273.678 393.23 291.166 400.177C301.306 404.205 311.907 406.942 321.87 411.442C332.351 416.175 339.485 423.848 346.651 432.601C360.318 449.295 375.741 464.299 393.352 476.817C430.69 503.358 477.982 515.911 523.286 506.383C534.156 504.097 545.122 500.547 554.893 495.198C565.209 489.551 572.966 481.368 579.48 471.693C591.575 453.732 600.249 433.507 606.811 412.926C613.504 391.932 618.255 370.9 620.846 349.009C623.428 327.189 623.972 305.147 623.581 283.192V283.192Z" fill="#D08B5B"/>
<path fill-rule="evenodd" clip-rule="evenodd" d="M382.911 18.7638C414.121 14.4708 457.198 28.4238 472.741 56.5578C546.947 39.0638 640.54 38.4908 701.701 96.7278C765.52 165.81 685.36 256.895 632.207 277.431C636.077 296.238 630.043 416.723 587.348 470.466C553.464 516.002 474.557 537.017 438.044 482.628L437.759 482.179C433.848 475.898 437.217 476.099 441.232 480.772C476.986 512.214 525.599 512.751 563.06 479.569C633.268 418.919 626.029 270.209 592.621 184.178C497.491 173.73 395.637 202.563 329.932 274.172L334.375 300.92C335.132 305.477 335.992 310.03 336.648 314.603C337.068 317.533 337.115 320.447 335.085 322.819C328.382 330.649 317.085 318.883 307.79 314.203C305.046 313.817 302.297 313.668 299.601 313.858C254.943 319.61 263.742 406.24 312.824 391.055C316.948 388.486 320.491 389.27 322.091 392.998C333.79 403.714 341.504 422.826 360.941 441.234C367.799 448.139 374.04 453.916 381.754 459.455C386.285 464.037 399.957 468.709 395.623 476.55C387.427 494.392 339.096 438.347 330.551 422.848C303.778 433.42 274.108 429.829 246.363 427.245C99.9933 419.635 119.533 265.345 239.509 167.934C262.093 151.308 287.01 137.745 312.911 127.308C316.447 125.883 314.902 120.077 311.316 121.522C294.178 128.429 277.471 136.65 261.545 146.165L261.521 140.476C261.498 130.895 261.648 120.92 263.312 112.166C264.144 106.1 265.543 99.6208 267.697 94.7468C270.36 79.8038 312.075 28.5118 382.911 18.7638ZM297.648 333.746C299.908 331.599 304.127 334.159 306.139 334.095C311.284 334.799 316.172 336.972 319.984 339.654C322.501 341.064 324.265 342.388 325.739 343.606L325.779 343.595C325.768 343.595 325.754 343.606 325.742 343.609L325.881 343.703C328.027 345.228 335.884 353.817 330.92 351.507C330.55 351.026 330.171 350.564 329.789 350.111C329.748 350.173 329.691 350.234 329.623 350.293L329.902 350.707C334.121 357.054 326.837 350.367 325.716 348.591C325.663 348.634 325.603 348.663 325.544 348.694L327.003 350.471C327.207 350.723 327.368 350.924 327.501 351.094L327.809 351.392C332.687 356.186 332.839 360.501 327.172 353.412C327.395 353.746 327.574 354.1 327.599 354.414L327.935 354.843C332.384 360.576 328.765 358.54 326.554 356.091L326.369 355.881L326.407 355.938C328.464 359.107 324.383 356.883 323.661 355.188L323.631 355.111C322.845 354.47 322.361 353.751 322.196 353.569L322.165 353.538C318.339 349.618 312.793 346.301 308.082 344.794C307.399 344.664 306.708 344.56 306.01 344.486C303.177 343.854 300.313 343.421 297.419 343.187C297.065 343.145 296.706 342.885 296.438 342.549C292.062 342.402 293.413 340.608 295.228 340.275L295.26 340.27L294.9 340.239C292.091 339.965 290.173 338.957 293.013 338.339L293.373 338.267C293.329 338.198 293.29 338.129 293.252 338.06C290.82 337.793 292.407 335.429 293.757 336.001C293.189 334.144 295.785 335.071 296.109 334.795C296.356 334.521 296.663 334.279 296.84 334.266C297.622 333.714 297.243 333.764 297.648 333.746ZM312.528 303.681L311.958 304.014C311.497 304.283 311.023 304.462 310.547 304.567C311.219 304.853 311.883 305.162 312.54 305.492C312.53 305.088 312.522 304.686 312.522 304.283L312.528 303.681Z" fill="black"/>
<path fill-rule="evenodd" clip-rule="evenodd" d="M440.199 378.799C451.121 372.222 491.944 377.043 524.013 378.799C549.478 380.193 567.667 377.43 573.488 381.348C586.641 390.2 580.252 433.006 557.589 438.86C534.925 444.714 450.913 452.89 436.427 438.86C421.942 424.83 420.604 390.598 440.199 378.799Z" fill="white"/>
<path fill-rule="evenodd" clip-rule="evenodd" d="M454.347 367.477C471.489 365.396 488.105 370.644 504.863 373.29C513.711 374.685 522.57 375.728 531.523 376.115C533.324 376.194 535.127 376.24 536.929 376.277C537.096 374.69 537.984 373.234 539.908 372.361C543.852 370.573 547.008 369.767 551.338 369.94C555.301 370.096 559.278 370.504 563.181 371.218C570.268 372.517 577.386 375.466 582.57 380.588C594.567 392.441 592.741 411.48 583.471 424.391C564.319 451.068 529.364 452.306 499.426 451.958L496.663 451.922C469.404 451.533 430.404 455.597 418.02 424.583C413.466 413.178 414.098 399.959 419.674 389.021C426.325 375.974 440.325 369.178 454.347 367.477ZM539.495 411.895L539.251 411.905C526.683 412.389 514.117 412.73 501.542 412.952C501.918 416.181 502.302 419.412 502.741 422.634C503.086 425.17 503.455 427.703 503.839 430.233C504.002 431.304 504.598 432.967 504.43 434.028L504.369 434.447V434.447C505.014 434.739 505.6 435.21 506.036 435.892C506.188 436.128 506.298 436.367 506.407 436.604C516.17 436.68 526.677 436.491 536.629 434.716L536.649 434.5V434.5C536.83 433.229 537.359 432.373 538.061 431.786C538.761 427.732 538.697 423.411 538.967 419.389C539.136 416.89 539.318 414.393 539.495 411.895ZM491.938 413.124C482.879 413.278 473.816 413.396 464.759 413.286L460.648 413.222V413.222C461.516 417.88 462.461 422.523 463.246 427.212C464.066 432.099 459.764 435.206 456.041 435.08C456.459 435.149 456.876 435.22 457.294 435.278C468.926 436.923 481.004 436.487 492.809 436.474C492.174 432.767 492.431 428.585 492.336 425.491L492.318 425.012C492.137 421.047 492.01 417.085 491.938 413.124ZM430.406 412.269C430.72 414.691 431.332 417.061 432.247 419.268C436.114 428.593 444.979 432.944 454.358 434.776C452.731 434.214 451.439 432.864 451.112 430.552C450.299 424.801 450.007 418.955 449.985 413.117C443.448 413.056 436.867 412.916 430.406 412.269ZM573.585 410.278C568.931 411.376 563.522 410.873 558.956 411.08C554.678 411.274 550.399 411.444 546.121 411.617C546.322 414.537 546.519 417.457 546.733 420.375C547.008 424.148 547.034 428.134 547.756 431.891C556.366 428.952 564.08 424.24 569.868 416.706C571.31 414.828 572.601 412.625 573.585 410.278ZM452.38 382.775C444.632 384.61 437.3 388.485 433.36 395.574C431.021 399.781 429.992 404.767 430.19 409.68C436.737 408.918 443.398 408.629 450.027 408.39C450.049 407.196 450.077 406.004 450.113 404.814L450.215 401.764C450.396 395.948 450.486 388.644 452.38 382.775ZM492.479 383.485L489.069 383.102C479.596 382.022 470.128 380.889 460.655 381.539C459.284 381.633 457.892 381.783 456.497 381.987C458.171 388.029 458.031 395.126 458.73 401.107C459 403.42 459.342 405.713 459.72 407.998L461.363 407.921V407.921C471.529 407.37 481.704 407.032 491.877 406.628C491.876 404.718 491.886 402.807 491.917 400.895L491.955 398.983C492.07 394.099 491.755 388.598 492.479 383.485ZM540.049 382.709C530.127 384.311 519.873 384.651 510.127 384.663C506.235 384.668 502.344 384.429 498.456 384.084C498.709 386.155 498.841 388.249 499.031 390.291C499.415 394.417 499.854 398.536 500.331 402.652L500.757 406.253V406.253C513.261 405.686 525.764 405.074 538.265 404.439L540.029 404.344V404.344L540.523 397.423C540.86 392.808 541.23 388.194 541.753 383.6L541.361 383.459V383.459C540.9 383.269 540.463 383.008 540.049 382.709ZM544.358 384.427C544.904 390.953 545.207 397.505 545.609 404.041L553.85 403.601C555.224 403.526 556.597 403.45 557.97 403.371C563.311 403.063 570.173 401.446 575.453 402.954C575.856 398.155 574.484 393.479 570.152 390.254C562.547 384.591 552.864 386.607 544.358 384.427ZM516.201 326.094C528.473 319.066 559.264 311.883 561.214 333.968C562.111 344.131 554.555 352.551 545.732 356.309L545.401 356.448C537.126 359.85 522.459 363.692 515.298 356.315C509.338 350.175 517.243 339.166 524.649 344.196C528.455 346.78 536.466 344.876 540.713 343.646L540.979 343.569C545.562 342.222 551.672 337.911 549.777 332.268C548.1 327.276 540.964 326.364 536.495 326.202C529.824 325.963 523.332 327.512 516.722 328.016C515.675 328.096 515.352 326.58 516.201 326.094ZM567.036 290.581C583.692 289.801 594.053 307.987 590.223 322.888C589.561 325.459 586.685 327.983 583.909 327.694L583.209 327.63C582.854 327.595 582.497 327.551 582.169 327.46C579.533 326.73 577.17 323.988 577.362 321.146L577.413 320.318C577.801 313.279 577.038 305.169 568.673 303.464C561.578 302.018 557.617 308.847 557.533 315.133C557.517 316.249 556.263 317.028 555.276 316.428C550.147 313.307 549.259 307.098 551.218 301.751C553.701 294.976 559.915 290.914 567.036 290.581ZM443.433 294.481C455.554 290.437 468.631 296.898 474.5 307.614C476.559 308.21 478.615 309.797 478.329 312.227C477.916 315.723 477.294 317.927 474.87 320.578C471.078 324.726 463.977 322.605 462.402 317.5L462.335 317.269C460.545 310.67 453.281 306.316 446.664 308.626C438.934 311.324 439.158 319.488 433.736 324.244C433.099 324.803 432.335 324.892 431.571 324.523C425.812 321.74 426.847 313.364 428.9 308.57C431.593 302.279 436.827 296.684 443.433 294.481ZM426.925 257.674C436.747 247.652 462.359 237.954 469.078 256.461C470.358 259.986 467.633 264.739 463.963 265.47C457.953 266.666 452.621 264.057 446.651 264.525C441.818 264.906 436.777 266.521 432.913 269.515C422.211 277.807 419.857 291.832 412.4 302.386C412.037 302.9 411.332 302.684 411.265 302.078C409.567 286.713 416.167 268.65 426.925 257.674ZM555.02 247.808C561.538 245.506 568.919 245.703 575.471 247.745C582.071 249.803 588.13 253.711 592.798 258.817C594.916 261.135 596.876 263.693 598.448 266.416C599.283 267.859 600.161 270.84 601.11 272.615C606.245 275.58 608.439 282.335 603.843 287.14L603.635 287.351L603.02 287.961C600.549 290.407 596.823 291.467 593.45 290.49C585.902 288.306 584.985 282.361 582.372 276.051C580.646 271.883 577.689 268.195 574.104 265.486C565.631 259.086 551.738 257.047 541.537 260.063C540.994 260.224 540.356 259.532 540.743 259.03C542.676 256.526 543.79 254.471 546.378 252.451C549.005 250.401 551.872 248.92 555.02 247.808Z" fill="black"/>
</svg>
